<?xml version="1.0" encoding="UTF-8"?>
<svg version="1.1" xmlns="http://www.w3.org/2000/svg" width="1254" height="1254">
<path d="M0 0 C413.82 0 827.64 0 1254 0 C1254 413.82 1254 827.64 1254 1254 C840.18 1254 426.36 1254 0 1254 C0 840.18 0 426.36 0 0 Z " fill="#FDFDFD" transform="translate(0,0)"/>
<path d="M0 0 C2.57705736 2.09131041 3.71363961 4.21835354 4.93847656 7.26733398 C5.2908287 8.13331207 5.64318085 8.99929016 6.00621033 9.89151001 C6.38056717 10.83352264 6.75492401 11.77553528 7.140625 12.74609375 C7.73895897 14.22437149 7.73895897 14.22437149 8.34938049 15.73251343 C9.20812786 17.85644091 10.063437 19.9817611 10.91567993 22.10830688 C12.7140108 26.59522939 14.52880443 31.07542788 16.34284973 35.55601501 C17.25920369 37.81972472 18.1747179 40.08377453 19.08940125 42.34815979 C22.93456521 51.86271898 26.85126092 61.34577345 30.8125 70.8125 C31.40603861 72.23265233 31.99954461 73.65281828 32.59301758 75.07299805 C33.77451088 77.89938904 34.95689087 80.72540741 36.13964844 83.55126953 C39.24005577 90.96167972 42.32609717 98.37808731 45.41439819 105.79354858 C47.02451987 109.65942552 48.63532052 113.5250195 50.24609375 117.390625 C50.78442726 118.68261576 51.32275772 119.97460779 51.86108398 121.26660156 C52.42484741 122.61963379 52.42484741 122.61963379 53 124 C55.82801186 121.25321889 58.45367469 118.63602835 60.6015625 115.32421875 C61.07875732 114.5976709 61.55595215 113.87112305 62.04760742 113.12255859 C62.56814697 112.31898926 63.08868652 111.51541992 63.625 110.6875 C64.84100612 108.83889453 66.05861026 106.99133978 67.27734375 105.14453125 C67.99132324 104.06123535 68.70530273 102.97793945 69.44091797 101.86181641 C74.36201796 94.42007443 79.35143172 87.02372003 84.33636475 79.62466431 C86.17522407 76.89323459 88.00975291 74.1589291 89.84423828 71.42456055 C90.99356069 69.71776486 92.14312714 68.01113346 93.29296875 66.3046875 C93.82370499 65.51176804 94.35444122 64.71884857 94.90126038 63.90190125 C95.64465919 62.80166374 95.64465919 62.80166374 96.40307617 61.67919922 C96.83383957 61.03860565 97.26460297 60.39801208 97.7084198 59.73800659 C99.04530053 57.93904164 100.26156599 56.42094496 102 55 C105.6875 54.8125 105.6875 54.8125 109 55 C111.06272828 58.47148581 111.47147694 61.58753944 111.89453125 65.578125 C111.9669957 66.24145844 112.03946014 66.90479187 112.11412048 67.58822632 C112.35456002 69.80807203 112.5836982 72.0289268 112.8125 74.25 C112.97957863 75.82216297 113.14723604 77.39426452 113.31542969 78.96630859 C113.68243523 82.41099628 114.04415628 85.8561932 114.40283203 89.30175781 C114.93009418 94.35521146 115.4733715 99.40684109 116.01982117 104.45825195 C116.48668565 108.78128608 116.94833141 113.10486745 117.40878296 117.42858887 C117.63488764 119.54666459 117.86242938 121.66458743 118.09146118 123.78234863 C118.41513743 126.78406011 118.73184135 129.78643319 119.046875 132.7890625 C119.14354965 133.67322845 119.2402243 134.55739441 119.33982849 135.46835327 C119.94563185 141.33135622 120.10798321 147.10744057 120 153 C120.66 153 121.32 153 122 153 C122 152.34 122 151.68 122 151 C123.54888502 149.58293498 125.16761534 148.24190504 126.8125 146.9375 C127.82570313 146.12667969 128.83890625 145.31585938 129.8828125 144.48046875 C130.91148437 143.66191406 131.94015625 142.84335938 133 142 C134.73159123 140.58629791 136.46080033 139.16967252 138.1875 137.75 C144.73507326 132.39289461 151.30340826 127.0614121 157.87109375 121.72900391 C160.05004584 119.95935497 162.22825445 118.18879478 164.40625 116.41796875 C165.12337158 115.83499023 165.84049316 115.25201172 166.5793457 114.65136719 C167.94778066 113.53886998 169.31611351 112.42624715 170.68432617 111.31347656 C171.9066754 110.31993292 173.13030555 109.32796221 174.35546875 108.33789062 C175.84702687 107.12444963 177.32107211 105.88956037 178.79296875 104.65234375 C181 103 181 103 183.625 102.625 C186 103 186 103 189 105 C190.04842799 113.65889185 187.23473285 121.90215305 185 130.1875 C184.58556822 131.75577431 184.17208998 133.32430089 183.75952148 134.89306641 C182.71438314 138.85682331 181.65655417 142.81706493 180.59490967 146.77642822 C179.71328816 150.07163221 178.84320034 153.36982046 177.97265625 156.66796875 C175.34754053 166.58366492 172.70177999 176.49249984 169.95722961 186.37582397 C169.01096352 189.78654977 168.07164013 193.19917325 167.13253784 196.61187744 C166.67209502 198.27674974 166.20804824 199.94062985 165.74026489 201.60345459 C165.08768546 203.9234309 164.4470065 206.24640461 163.80859375 208.5703125 C163.61010834 209.26368713 163.41162292 209.95706177 163.2071228 210.67144775 C161.90546028 215.38427643 161.90546028 215.38427643 163 220 C165.12417344 222.00429358 165.12417344 222.00429358 167.8125 223.9375 C202.10351699 251.12157046 218.51017966 295.34411115 223.54052734 337.5378418 C224.29062389 344.3651112 224.54594544 351.21835632 224.8331604 358.0776062 C226.27076308 391.45361906 228.83948619 419.18505835 251.859375 445.23828125 C258.74572395 453.07074507 264.69624367 461.01307956 270 470 C270.41765625 470.70253906 270.8353125 471.40507813 271.265625 472.12890625 C280.51317584 489.11944608 283.79743791 512.29406136 278.46020508 531.01733398 C275.37838482 540.16321034 270.76994214 548.68146237 266.13964844 557.12353516 C259.90481563 568.50896853 257.90248506 580.21578359 260.65234375 593.04296875 C263.67137284 601.19305156 269.21805483 608.12417286 275 614.5 C290.95762346 632.11795422 298.33351113 651.82078921 297.17138672 675.41894531 C295.66806339 698.05873761 283.79083495 718.20916505 268 734 C265.125 734.375 265.125 734.375 262 734 C259.14055329 730.16540865 257.78433713 725.78950302 256.25 721.3125 C253.79456073 714.41260497 250.64692887 708.71929707 246 703 C246.01571045 703.8521106 246.01571045 703.8521106 246.03173828 704.72143555 C246.40661515 728.19394703 244.13963259 749.19848178 227.4375 767.1875 C219.86219308 774.46164793 210.62775809 778.99964816 201 783 C201.04640625 783.87140625 201.0928125 784.7428125 201.140625 785.640625 C201.47666977 796.73010251 199.93102939 806.4919392 192.69921875 815.25390625 C187.79413324 820.29430447 181.19345124 825.7272347 173.90820312 826.10986328 C170.95410156 826.05493164 170.95410156 826.05493164 168 826 C197.84465322 904.18266915 197.84465322 904.18266915 231 981 C231.89467649 982.95956911 232.78921231 984.91920245 233.68359375 986.87890625 C234.55961424 988.79439964 235.4359148 990.70976497 236.3125 992.625 C236.73813232 993.55562256 237.16376465 994.48624512 237.60229492 995.44506836 C240.08748526 1000.86676791 242.59510258 1006.27727387 245.12623596 1011.67764282 C246.61745423 1014.86446812 248.09935776 1018.05558161 249.58016968 1021.24725342 C250.3131585 1022.82118455 251.05026611 1024.39320468 251.79165649 1025.9631958 C252.83387846 1028.1712427 253.86164394 1030.38551399 254.88671875 1032.6015625 C255.20176361 1033.25995117 255.51680847 1033.91833984 255.84140015 1034.59667969 C257.64505206 1038.54058029 258.55050515 1041.66492056 258 1046 C242.58413294 1060.16593189 209.88548492 1064.04056137 190.03369141 1068.328125 C186.1508741 1069.18805686 182.29270418 1070.13632744 178.43188477 1071.08935547 C170.74119304 1072.98384903 163.16253907 1074.5558128 155.29296875 1075.54296875 C151.79931531 1076.02785304 148.38850383 1076.70999108 144.9375 1077.4375 C127.05571307 1081.07602311 108.93520277 1082.90350461 90.7661438 1084.42390442 C87.04032182 1084.73581214 83.31698664 1085.0609696 79.59570312 1085.42333984 C52.20402155 1088.07352597 24.8692641 1088.27208678 -2.625 1088.25 C-3.52907719 1088.2496664 -4.43315437 1088.24933281 -5.36462784 1088.24898911 C-35.32663867 1088.23419738 -65.03709698 1087.6708746 -94.875 1084.6875 C-96.5631633 1084.5223439 -96.5631633 1084.5223439 -98.28543091 1084.35385132 C-114.30559873 1082.78454324 -130.25952337 1081.02086829 -146.15478516 1078.45532227 C-150.49661527 1077.76049532 -154.84701523 1077.12230438 -159.1965332 1076.47753906 C-162.54901936 1075.90648072 -165.73485586 1074.9418685 -169 1074 C-171.13124313 1073.71873929 -173.25522545 1073.509249 -175.3984375 1073.34375 C-184.68173344 1072.11712831 -193.89273379 1069.40533364 -202.99267578 1067.22363281 C-204.66341989 1066.82473656 -206.33497548 1066.42922386 -208.00732422 1066.03710938 C-224.44108015 1062.18096417 -224.44108015 1062.18096417 -231.25341797 1058.81738281 C-233.85355048 1057.60054697 -236.50234681 1057.09099833 -239.3125 1056.5625 C-245.93859968 1055.14872492 -251.8317222 1052.74851202 -258 1050 C-259.34578125 1049.52240234 -259.34578125 1049.52240234 -260.71875 1049.03515625 C-263 1048 -263 1048 -265 1045 C-264.79284729 1039.11866446 -261.91048879 1034.03305948 -259.4375 1028.8125 C-258.42663583 1026.64083325 -257.41624755 1024.46894494 -256.40625 1022.296875 C-255.85710937 1021.12189453 -255.30796875 1019.94691406 -254.7421875 1018.73632812 C-248.73384478 1005.86786575 -242.8535533 992.93945112 -237 980 C-236.64959656 979.22589783 -236.29919312 978.45179565 -235.93817139 977.65423584 C-214.65515788 930.57615603 -196.14035221 882.35937421 -178 834 C-177.70499603 833.21358124 -177.40999207 832.42716248 -177.10604858 831.61691284 C-176.40387069 829.7446692 -175.70190984 827.87234416 -175 826 C-176.3921875 826.12375 -176.3921875 826.12375 -177.8125 826.25 C-186.45054271 826.18019763 -193.87350617 822.22091418 -199.98828125 816.34765625 C-207.02529435 808.13553029 -209.16285794 800.26294193 -209.0625 789.625 C-209.05347656 788.37976563 -209.04445313 787.13453125 -209.03515625 785.8515625 C-209.02355469 784.91054688 -209.01195312 783.96953125 -209 783 C-210.155 782.835 -211.31 782.67 -212.5 782.5 C-227.36209397 779.12438244 -240.60966774 770.07757958 -248.9375 757.375 C-249.98007816 755.59589884 -251.00320663 753.80515183 -252 752 C-252.39832031 751.32324219 -252.79664063 750.64648438 -253.20703125 749.94921875 C-259.42225734 738.70594459 -260.18926479 725.50671603 -260.0625 712.9375 C-260.05798828 712.07189453 -260.05347656 711.20628906 -260.04882812 710.31445312 C-260.03719913 708.20960461 -260.01927073 706.10479242 -260 704 C-266.38815089 712.15547794 -269.9107583 720.52714934 -273.07421875 730.328125 C-274 733 -274 733 -275 734 C-277.9641888 734.67929327 -279.16360229 734.87641502 -282 734 C-289.74715799 727.7318449 -294.87940606 718.42121774 -300 710 C-300.53753906 709.15566406 -301.07507813 708.31132813 -301.62890625 707.44140625 C-303.13171515 704.76546448 -304.1097694 702.16604995 -305.0625 699.25 C-305.38347656 698.28578125 -305.70445312 697.3215625 -306.03515625 696.328125 C-311.97171155 675.8506144 -310.95802672 653.36863291 -301.3125 634.1875 C-296.63253094 626.35940743 -290.9587738 618.63207759 -284.3125 612.375 C-276.05331963 604.52584986 -270.22121174 593.34901913 -269.75 581.9375 C-270.02783713 570.60174504 -274.36257352 562.15461899 -279.86816406 552.5090332 C-283.82068966 545.52355726 -286.78170792 538.74385598 -289 531 C-289.24234375 530.21625 -289.4846875 529.4325 -289.734375 528.625 C-294.89857442 508.52649416 -289.94238866 486.70600432 -279.73828125 469.17407227 C-274.59602949 460.66482167 -268.3997076 453.68995023 -261.50585938 446.57568359 C-237.93342635 421.91023568 -234.92312362 393.19688723 -232.84594727 360.67163086 C-232.02479732 348.01017607 -230.9541679 335.4704815 -229.0390625 322.921875 C-228.8789418 321.86867569 -228.71882111 320.81547638 -228.55384827 319.73036194 C-223.08431832 285.76553862 -205.79268221 254.47493777 -182 230 C-181.51370117 229.4932373 -181.02740234 228.98647461 -180.52636719 228.46435547 C-174.59694432 222.29172576 -174.59694432 222.29172576 -172 220 C-171.34 220 -170.68 220 -170 220 C-171.2608019 213.14427532 -172.89915096 206.49492277 -174.875 199.8125 C-177.01720757 192.50745883 -179.03844631 185.17722827 -180.98681641 177.81811523 C-181.93283254 174.25311613 -182.89317234 170.6923851 -183.859375 167.1328125 C-187.36502761 154.16759359 -190.76521663 141.18115185 -193.96105957 128.13592529 C-194.318152 126.67928744 -194.67709744 125.2231025 -195.03796387 123.76739502 C-195.54183294 121.73047872 -196.03775542 119.69179507 -196.53125 117.65234375 C-196.95760742 115.90425415 -196.95760742 115.90425415 -197.39257812 114.12084961 C-198.75028013 107.14516441 -198.75028013 107.14516441 -196.8125 104.1875 C-194.24186007 102.50328763 -193.06200329 102.552314 -190 103 C-187.41288528 104.55845163 -185.17022119 106.48214866 -182.875 108.4375 C-182.21411377 108.98374023 -181.55322754 109.52998047 -180.87231445 110.09277344 C-179.53360268 111.20056108 -178.19899323 112.31332598 -176.86865234 113.43115234 C-174.32917899 115.56319517 -171.758324 117.65593366 -169.1875 119.75 C-168.31480469 120.46671875 -167.44210937 121.1834375 -166.54296875 121.921875 C-164.04222774 123.96549131 -161.52494143 125.98638894 -159 128 C-152.60315643 133.10332702 -146.28108884 138.29743004 -139.96484375 143.5 C-138.98644531 144.304375 -138.00804687 145.10875 -137 145.9375 C-136.113125 146.66839844 -135.22625 147.39929688 -134.3125 148.15234375 C-131.94099979 150.10145442 -131.94099979 150.10145442 -129 152 C-125.88802035 142.66406104 -125.865719 131.77139147 -125.0625 122 C-124.32409616 113.06826717 -123.34311988 104.1931654 -122.17602539 95.30761719 C-121.45110541 89.75276501 -120.80224193 84.19953353 -120.24609375 78.625 C-120.05841431 76.78180176 -120.05841431 76.78180176 -119.86694336 74.90136719 C-119.62686639 72.51241763 -119.39680419 70.12243512 -119.17797852 67.73144531 C-119.0125354 66.10867676 -119.0125354 66.10867676 -118.84375 64.453125 C-118.75287109 63.49567383 -118.66199219 62.53822266 -118.56835938 61.55175781 C-117.92238343 58.65152562 -117.0424032 57.14194271 -115 55 C-112.1875 54.3125 -112.1875 54.3125 -109 55 C-104.37721354 59.24495002 -100.97170211 64.80643877 -97.57421875 70.03515625 C-96.52217275 71.6335358 -95.46923285 73.23132725 -94.41552734 74.82861328 C-93.58598541 76.08850067 -93.58598541 76.08850067 -92.73968506 77.37384033 C-89.70193204 81.95951198 -86.60854642 86.5073683 -83.51953125 91.05859375 C-82.24139028 92.94586455 -80.9633961 94.83323477 -79.68554688 96.72070312 C-77.72753775 99.61192487 -75.76843136 102.50237749 -73.80639648 105.39086914 C-71.87423525 108.23628676 -69.94649361 111.08465375 -68.01953125 113.93359375 C-67.13223076 115.23652626 -67.13223076 115.23652626 -66.227005 116.56578064 C-65.41431404 117.76963158 -65.41431404 117.76963158 -64.58520508 118.99780273 C-64.10843826 119.70073959 -63.63167145 120.40367645 -63.14045715 121.12791443 C-62 123 -62 123 -61 126 C-60.34 126 -59.68 126 -59 126 C-58.7834375 124.94425781 -58.566875 123.88851562 -58.34375 122.80078125 C-56.7936811 116.63952647 -54.07848795 110.97382157 -51.5 105.1875 C-50.31684193 102.50208336 -49.14017446 99.8138505 -47.96484375 97.125 C-47.49370399 96.04831306 -47.49370399 96.04831306 -47.01304626 94.94987488 C-42.92309856 85.57404022 -38.99940524 76.12832881 -35.0625 66.6875 C-33.52913039 63.0141205 -31.99513723 59.34100162 -30.4609375 55.66796875 C-29.89795204 54.31991402 -29.89795204 54.31991402 -29.32359314 52.94462585 C-25.9297036 44.82245654 -22.5140589 36.70961957 -19.07931519 28.60464478 C-18.49586898 27.22773729 -17.91294185 25.8506097 -17.33059692 24.47323608 C-15.56938006 20.30866704 -13.79280106 16.1511042 -12 12 C-11.53029785 10.90945312 -11.0605957 9.81890625 -10.57666016 8.6953125 C-9.9141626 7.19097656 -9.9141626 7.19097656 -9.23828125 5.65625 C-8.85325439 4.77775391 -8.46822754 3.89925781 -8.0715332 2.99414062 C-6.18774669 -0.51161654 -3.70340002 -0.36130732 0 0 Z " fill="#1C0C3C" transform="translate(631,77)"/>
<path d="M0 0 C0.66 0 1.32 0 2 0 C3.38950534 2.03692321 4.67102928 4.07570487 5.9375 6.1875 C10.64448673 13.74601028 15.99690418 20.43661524 22 27 C22.45713379 27.50241211 22.91426758 28.00482422 23.38525391 28.52246094 C35.37499491 41.52297729 49.86330382 51.9529708 65 61 C65.61133789 61.36544922 66.22267578 61.73089844 66.85253906 62.10742188 C87.77658317 74.483817 109.94478884 83.43388588 133 91 C133.54101549 132.32109816 126.89674875 165.01746206 97.4375 195.9375 C66.92841429 225.56562427 28.3061483 233.71190928 -12.8203125 233.27734375 C-22.90860096 233.11133926 -32.32004113 231.89013087 -42 229 C-42.75684082 228.78569336 -43.51368164 228.57138672 -44.29345703 228.35058594 C-77.57057271 218.79115526 -105.94014605 197.77673297 -123.15966797 167.61645508 C-135.1179119 145.90130666 -140.9758143 119.74427105 -138 95 C-137.1796875 92.75732422 -137.1796875 92.75732422 -136 91 C-133.50195697 90.03664277 -131.20594524 89.32903847 -128.625 88.6875 C-127.07044868 88.263365 -125.51710306 87.83479183 -123.96484375 87.40234375 C-123.14999512 87.17659668 -122.33514648 86.95084961 -121.49560547 86.71826172 C-89.38892424 77.47761838 -57.42238623 61.88373472 -32.96484375 38.84765625 C-31.29892885 37.28110009 -29.60738794 35.85010012 -27.8125 34.4375 C-24.14195112 31.25635764 -21.12147672 27.71136208 -18 24 C-17.20078125 23.07703125 -16.4015625 22.1540625 -15.578125 21.203125 C-10.63346481 15.41937096 -6.23193464 9.58617015 -2.27734375 3.08203125 C-1 1 -1 1 0 0 Z " fill="#5F23AC" transform="translate(630,334)"/>
<path d="M0 0 C7.42117661 2.11580304 14.63802965 4.64097949 21.875 7.3125 C29.59784396 10.11873785 37.32511936 12.85858887 45.1875 15.25 C45.97922607 15.49476074 46.77095215 15.73952148 47.58666992 15.99169922 C51.97513243 17.29247769 56.28690872 18.25291653 60.8125 18.94921875 C76.25770325 21.44960328 76.25770325 21.44960328 80.17578125 26.296875 C82.23697432 29.43982037 83.74236983 32.755575 85.17382812 36.22265625 C86.32104548 38.69066522 88.02934996 40.5927956 89.75 42.6875 C94.25274103 50.30463691 90.83614499 59.9243234 89 68 C88.79262207 68.92651367 88.58524414 69.85302734 88.37158203 70.80761719 C86.74748943 77.91745221 84.89843342 84.95921847 83 92 C82.57291748 93.61624268 82.57291748 93.61624268 82.13720703 95.26513672 C74.81666149 122.81936257 65.14462019 149.48296413 53.20800781 175.37402344 C52.11764367 177.74426529 51.05089211 180.12331367 49.9921875 182.5078125 C41.72704826 200.88910425 31.32873736 218.35299011 20 235 C19.59217285 235.60070312 19.1843457 236.20140625 18.76416016 236.8203125 C10.07246088 249.52383434 0.3618923 261.61926055 -10 273 C-10.65500488 273.72050537 -10.65500488 273.72050537 -11.32324219 274.45556641 C-20.67966993 284.72790023 -30.05588998 294.383213 -41 303 C-41.94673584 303.75337646 -41.94673584 303.75337646 -42.91259766 304.52197266 C-64.99783243 322.04985304 -89.61385188 335.76716376 -117 343 C-118.19753906 343.3609375 -119.39507812 343.721875 -120.62890625 344.09375 C-127.45096376 345.92772143 -133.38177329 345.25301335 -140 343 C-140 342.34 -140 341.68 -140 341 C-142.97 340.67 -145.94 340.34 -149 340 C-150.12311656 335.50753376 -149.84535978 334.92857646 -147.921875 330.9609375 C-147.43041992 329.92807617 -146.93896484 328.89521484 -146.43261719 327.83105469 C-145.59972168 326.12030762 -145.59972168 326.12030762 -144.75 324.375 C-143.53599191 321.82820538 -142.33131148 319.27700985 -141.125 316.7265625 C-140.79876648 316.03981445 -140.47253296 315.35306641 -140.13641357 314.64550781 C-120.44533993 273.13848391 -102.58817037 230.83221731 -86 188 C-85.75399048 187.36533813 -85.50798096 186.73067627 -85.2545166 186.07678223 C-81.74376533 177.01734315 -78.26895071 167.94429881 -74.80419922 158.8671875 C-53.9331348 104.21806346 -31.49919544 49.54864199 0 0 Z " fill="#270E4D" transform="translate(531,778)"/>
<path d="M0 0 C4.37083948 1.45694649 5.3878064 4.81884067 7.4375 8.6875 C7.87360596 9.49276123 8.30971191 10.29802246 8.7590332 11.12768555 C9.69769959 12.86153953 10.63271336 14.59737491 11.56445312 16.33496094 C12.95853066 18.92301373 14.37340052 21.49833037 15.796875 24.0703125 C42.39244686 72.20039249 63.5635457 122.08614633 82.7109375 173.59375 C84.33412868 177.88290971 86.04348527 182.13428762 87.76245117 186.38574219 C89.47894031 190.64790483 91.09993395 194.93764294 92.6875 199.25 C108.88163431 242.87345961 128.55844726 285.49484129 148.58154297 327.47998047 C148.88183411 328.11303101 149.18212524 328.74608154 149.49151611 329.39831543 C150.29433692 331.09032964 151.10135419 332.78035096 151.90869141 334.47021484 C153 337 153 337 153 339 C143.04858418 343.06781808 134.83432861 346.38327835 124 344 C122.72253906 343.73445313 121.44507813 343.46890625 120.12890625 343.1953125 C111.68074702 341.32040517 103.87151483 338.61875093 96 335 C94.75185945 334.46354509 93.50312558 333.92846923 92.25390625 333.39453125 C74.84803678 325.77461442 58.60057492 315.12369167 44 303 C43.41734375 302.51740723 42.8346875 302.03481445 42.234375 301.53759766 C29.8873678 291.24950579 18.10365542 280.32200107 8.125 267.68359375 C5.89969996 264.87333432 3.58088871 262.16060556 1.25 259.4375 C-15.46762711 239.35564453 -28.88338844 217.08120544 -41 194 C-41.45729492 193.13600586 -41.91458984 192.27201172 -42.38574219 191.38183594 C-62.90135173 152.40365481 -78.09222009 109.57680546 -86.9375 66.4375 C-87.25545532 64.89316284 -87.25545532 64.89316284 -87.57983398 63.31762695 C-89.56391817 53.10615059 -89.76177217 47.14326316 -83.9375 38.16796875 C-81.91773364 35.08127562 -81.91773364 35.08127562 -80.75 31.73828125 C-78.96365115 27.41595501 -77.36123848 24.00479381 -72.86230469 22.09033203 C-67.29343539 20.43274882 -61.57686321 19.51187136 -55.85742188 18.53320312 C-51.67002685 17.75182319 -47.63246629 16.62127476 -43.5625 15.375 C-42.78769287 15.13966553 -42.01288574 14.90433105 -41.21459961 14.66186523 C-20.18322277 8.39346239 -20.18322277 8.39346239 0 0 Z " fill="#270E4C" transform="translate(722,778)"/>
<path d="M0 0 C2.43951709 2.99097206 3.92149609 5.873719 5.34765625 9.453125 C5.78239258 10.53392334 6.21712891 11.61472168 6.66503906 12.72827148 C7.12620117 13.89044189 7.58736328 15.0526123 8.0625 16.25 C8.80605958 18.09945108 9.54963233 19.94889721 10.29446411 21.7978363 C10.80038839 23.05405264 11.30565348 24.31053466 11.81027222 25.567276 C14.07730343 31.21024946 16.40263567 36.82756409 18.75 42.4375 C19.14590332 43.3847998 19.54180664 44.33209961 19.94970703 45.30810547 C20.81081787 47.36841765 21.67215726 49.42863432 22.53369141 51.48876953 C24.21754547 55.52093555 25.89624965 59.5552261 27.57421875 63.58984375 C33.48441046 77.79883645 39.40111147 92.00514623 45.375 106.1875 C45.83318115 107.27981934 46.2913623 108.37213867 46.76342773 109.49755859 C47.17923096 110.48191895 47.59503418 111.4662793 48.0234375 112.48046875 C48.56363525 113.76280396 48.56363525 113.76280396 49.11474609 115.07104492 C49.8481858 116.96409412 49.8481858 116.96409412 51 118 C54.18975656 118.52369138 55.95537335 118.80588979 59 118 C61.727681 115.517888 63.47934097 112.51601284 65.375 109.375 C66.50245489 107.61495486 67.63137279 105.85584607 68.76171875 104.09765625 C69.31005371 103.22641113 69.85838867 102.35516602 70.42333984 101.45751953 C72.54955424 98.143417 74.85092646 94.97976185 77.1875 91.8125 C81.19303699 86.29801677 84.80919749 80.58826497 88.37158203 74.7800293 C91.52081545 69.67616415 94.9016878 64.83718848 98.50390625 60.0390625 C100.03195914 58.07653339 100.03195914 58.07653339 101 56 C101.66 56 102.32 56 103 56 C103.11069824 57.1331665 103.22139648 58.26633301 103.33544922 59.43383789 C103.75403478 63.71144342 104.17610025 67.98870014 104.59912109 72.26586914 C104.7803822 74.10334347 104.96074825 75.94090636 105.14013672 77.77856445 C106.10765672 87.68348294 107.16887498 97.54765972 108.53564453 107.40600586 C109.03080331 111.23840984 109.42529348 115.07463941 109.78125 118.921875 C109.90113281 120.21351563 110.02101563 121.50515625 110.14453125 122.8359375 C110.32446353 124.81716984 110.50422761 126.79842536 110.67724609 128.78027344 C110.8501982 130.74481985 111.03429998 132.70837475 111.21875 134.671875 C111.32123047 135.8175293 111.42371094 136.96318359 111.52929688 138.14355469 C111.83006664 141.19146892 111.83006664 141.19146892 114 144 C117.49590381 144.71344976 119.88054511 144.6611985 123.00390625 142.81640625 C125.4188715 140.96181968 127.70763138 139.00452203 130 137 C131.03605093 136.12037836 132.07390873 135.2428818 133.11328125 134.3671875 C135.35387479 132.47835949 137.58866099 130.58297499 139.8203125 128.68359375 C143.22105386 125.80053201 146.69107185 123.01218247 150.1875 120.24609375 C152.47277606 118.42104689 154.73985788 116.57852388 157 114.72265625 C157.71051514 114.1404834 158.42103027 113.55831055 159.15307617 112.95849609 C160.56418499 111.80121137 161.97329305 110.6414816 163.38012695 109.47900391 C164.03456787 108.9432373 164.68900879 108.4074707 165.36328125 107.85546875 C165.94376221 107.37746826 166.52424316 106.89946777 167.12231445 106.40698242 C169.32104459 104.75943571 171.62631275 103.38025234 174 102 C170.79490994 115.06671422 167.37586703 128.07532158 163.93652344 141.08203125 C163.0001267 144.62452066 162.06637746 148.16770091 161.1328125 151.7109375 C159.68396473 157.2044371 158.22136979 162.69412474 156.75048828 168.1817627 C156.08125562 170.69486848 155.42691105 173.2112521 154.77734375 175.72949219 C154.43832031 177.00211914 154.09929687 178.27474609 153.75 179.5859375 C153.47671875 180.63571777 153.2034375 181.68549805 152.921875 182.76708984 C152.61765625 183.5039502 152.3134375 184.24081055 152 185 C148.70569869 186.09810044 147.66573775 185.9009694 144.37109375 185.14453125 C143.43289795 184.93626709 142.49470215 184.72800293 141.52807617 184.51342773 C140.50818604 184.28212158 139.4882959 184.05081543 138.4375 183.8125 C119.68776599 179.755952 100.78972615 177.12134513 81.75 174.875 C81.08487396 174.79450409 80.41974792 174.71400818 79.73446655 174.631073 C54.3142292 171.58180779 28.88948862 170.64113919 3.31580353 170.74205017 C1.14524846 170.75015782 -1.02529612 170.75508616 -3.19586182 170.75939941 C-23.85311656 170.80661726 -44.42036212 171.01538083 -65 173 C-66.41403695 173.13048552 -67.8281006 173.26068188 -69.2421875 173.390625 C-95.75013031 175.86355707 -121.93184553 180.02639714 -147.99487305 185.44702148 C-151 186 -151 186 -154 186 C-156.31173297 177.93836326 -158.61616781 169.87467189 -160.9140625 161.80908203 C-161.59246608 159.42948385 -162.27196898 157.05019848 -162.953125 154.67138672 C-166.47849214 142.34999663 -169.81956728 129.99296527 -172.9375 117.5625 C-173.24437744 116.34046875 -173.55125488 115.1184375 -173.86743164 113.859375 C-176 105.25783163 -176 105.25783163 -176 103 C-172.48584063 104.55276809 -169.81419888 106.66567032 -166.875 109.125 C-163.27359293 112.11502762 -159.66314637 115.08586759 -156 118 C-152.61640593 120.69522595 -149.26930179 123.4285872 -145.9375 126.1875 C-144.52409545 127.33677331 -143.11042467 128.48573098 -141.69287109 129.62988281 C-140.4474439 130.6378634 -139.20618183 131.65099573 -137.96728516 132.66699219 C-135.74201437 134.48339852 -133.49805531 136.27440113 -131.25 138.0625 C-130.18640259 138.93974731 -130.18640259 138.93974731 -129.10131836 139.8347168 C-125.58649299 142.59498408 -123.63880544 143.91854589 -119.109375 144.49609375 C-115.90556127 144.2968059 -115.90556127 144.2968059 -114 142 C-113.5174438 139.39873823 -113.14985512 136.86592766 -112.8515625 134.2421875 C-112.75416779 133.4427623 -112.65677307 132.6433371 -112.556427 131.81968689 C-112.23692327 129.17244955 -111.93064909 126.52387005 -111.625 123.875 C-111.40690981 122.03861587 -111.18848113 120.20227191 -110.96972656 118.3659668 C-109.21545616 103.48730708 -107.68449606 88.58656705 -106.25634766 73.67333984 C-106.17851044 72.86530411 -106.10067322 72.05726837 -106.02047729 71.2247467 C-105.87676533 69.72708835 -105.73494376 68.22924673 -105.5954895 66.73118591 C-105.21802325 62.78624519 -104.70056209 58.90058076 -104 55 C-99.99754228 58.59462435 -97.29010352 62.84242421 -94.375 67.3125 C-93.29819722 68.94532578 -92.22137402 70.57813809 -91.14453125 72.2109375 C-90.61166504 73.02272461 -90.07879883 73.83451172 -89.52978516 74.67089844 C-87.38617442 77.93455091 -85.22728709 81.18786597 -83.0625 84.4375 C-82.66957764 85.02764893 -82.27665527 85.61779785 -81.87182617 86.22583008 C-78.34586055 91.50809388 -74.77162652 96.75707075 -71.1875 102 C-70.64810791 102.78947021 -70.10871582 103.57894043 -69.55297852 104.39233398 C-68.52507445 105.8926175 -67.49426805 107.39091772 -66.46020508 108.88696289 C-65.49758145 110.27995863 -64.54151324 111.67751061 -63.5925293 113.07983398 C-61.14755757 116.79660243 -61.14755757 116.79660243 -57.4375 119.0625 C-54.59165999 118.98952974 -53.37380153 118.56289875 -51 117 C-49.49260462 114.61971652 -49.49260462 114.61971652 -48.29296875 111.69140625 C-47.79676025 110.57024414 -47.30055176 109.44908203 -46.78930664 108.29394531 C-46.25501659 107.05028245 -45.72109265 105.80646225 -45.1875 104.5625 C-44.61874414 103.26226314 -44.04897847 101.96246758 -43.47827148 100.66308594 C-41.94866208 97.16930369 -40.43695443 93.66806635 -38.93078613 90.16412354 C-38.00815262 88.01895524 -37.08222449 85.87523937 -36.15527344 83.73193359 C-31.73371592 73.50344004 -27.3595018 63.25506968 -23 53 C-22.36720498 51.51236236 -21.7343925 50.02473214 -21.1015625 48.53710938 C-13.70664625 31.15856191 -13.70664625 31.15856191 -6.3828125 13.75 C-5.81518188 12.39358398 -5.81518188 12.39358398 -5.23608398 11.00976562 C-4.56137344 9.3948589 -3.88883285 7.77904294 -3.21899414 6.16210938 C-1.10961246 1.10961246 -1.10961246 1.10961246 0 0 Z " fill="#240D46" transform="translate(628,104)"/>
<path d="M0 0 C5.58445952 -0.4909415 9.29580128 1.107978 14.1875 3.5 C14.93854004 3.86311279 15.68958008 4.22622559 16.46337891 4.6003418 C34.2109272 13.41697638 48.05087318 27.05813574 55 45.75 C59.35563876 62.88972137 54.78000561 80.14996375 46 95 C43.90275117 98.28928196 41.70675002 101.50929317 39.49975586 104.72558594 C36.4021177 109.27462375 33.84601137 113.79304401 32 119 C31.649375 119.93457031 31.29875 120.86914062 30.9375 121.83203125 C28.55789178 129.87312404 29.0142417 137.91145824 32.5625 145.5 C35.29036566 150.33664124 38.29752508 154.01532414 43 157 C43.85464844 157.556875 43.85464844 157.556875 44.7265625 158.125 C50.68063488 160.41660174 59.51966264 159.86748707 65.6171875 158.34765625 C72.09796893 155.40987012 76.28801778 149.98579452 79.3125 143.6875 C82.12107863 136.19407238 81.82773584 127.90692517 82 120 C84.475 119.505 84.475 119.505 87 119 C94.0260583 129.87317956 99.65647174 141.82323748 100 155 C100.03867188 155.78503906 100.07734375 156.57007813 100.1171875 157.37890625 C100.5368096 172.27549071 95.91654958 186.39458048 86.13671875 197.7578125 C81.43564702 202.69092982 76.40614773 207.02782441 70.875 211 C60.83077273 218.43794076 57.99615177 226.05252336 55.5625 237.9375 C52.72337661 251.42333609 46.78491442 263.11351735 35 271 C20.19381647 279.21249647 5.10221033 283.13763971 -11.75 278.4375 C-21.53517248 275.01569122 -30.55987252 269.23174189 -37 261 C-38.21484375 258.2578125 -38.21484375 258.2578125 -39 256 C-39.66 256 -40.32 256 -41 256 C-47.19973178 240.78851523 -47.98825905 227.73223854 -42.484375 212.171875 C-40.99927312 208.99844677 -39.3067022 206.62214865 -37 204 C-35.06640625 204.71484375 -35.06640625 204.71484375 -33 206 C-32.27734375 208.06640625 -32.27734375 208.06640625 -31.9375 210.5625 C-30.74394429 217.74459174 -29.39725786 224.75694951 -24 230 C-19.18606404 233.24660797 -14.65208746 233.89136863 -9 233 C-4.92076781 231.11146658 -3.37057988 229.64233846 -1.125 225.75 C1.12285481 218.25715062 0.25801768 212.00967441 -3 205 C-7.78468609 197.02552318 -14.93903466 190.48891352 -22.0625 184.625 C-31.55294882 176.43901526 -39.98933252 163.27303984 -41.23730469 150.58789062 C-42.28252637 130.06492476 -37.06837435 115.891211 -23.2043457 100.53198242 C-18.68002266 95.63565516 -14.04906479 90.98915588 -8.95703125 86.6796875 C1.64878086 77.57689468 10.69243555 66.88606798 14 53 C14.3403125 51.576875 14.3403125 51.576875 14.6875 50.125 C16.29529895 34.0470105 12.09592081 22.05246894 3 9 C2.24074219 8.07703125 1.48148438 7.1540625 0.69921875 6.203125 C-1 4 -1 4 -0.75 1.6875 C-0.5025 1.130625 -0.255 0.57375 0 0 Z " fill="#F32F93" transform="translate(1007,587)"/>
<path d="M0 0 C0.495 1.485 0.495 1.485 1 3 C-0.4885011 5.434102 -2.01724729 7.6966977 -3.6875 10 C-12.50662869 22.64681711 -15.54991722 35.66068472 -14 51 C-9.77543253 69.28013776 4.46756225 81.40118815 18.63671875 92.3828125 C32.6638031 103.27055777 43.6324258 116.18602055 47 134 C48.0701732 144.09433644 45.40892752 153.55989303 42 163 C41.34 163 40.68 163 40 163 C39.76667969 163.86496094 39.53335938 164.72992187 39.29296875 165.62109375 C37.85838917 169.37007061 35.90481655 172.06786335 33.3125 175.0625 C32.83844727 175.62050293 32.36439453 176.17850586 31.87597656 176.75341797 C28.01376798 181.1573229 23.7527262 184.8931164 19.25 188.625 C11.00167883 195.48156539 4.96060735 202.46431753 3.7265625 213.4296875 C3.49939237 218.89924531 3.99157943 222.41369356 7.59375 226.65625 C10.3784487 229.31718431 12.47201868 229.93752717 16.29296875 230.09375 C21.94543473 229.88851674 25.56071061 228.73505144 29.6015625 224.72265625 C33.75353643 219.60807383 34.5566932 213.6799755 35.47265625 207.35546875 C36 205 36 205 38 203 C38.99 203 39.98 203 41 203 C46.29229153 210.3142183 49.56539886 220.01824315 50 229 C50.05027344 229.82757812 50.10054687 230.65515625 50.15234375 231.5078125 C50.65193688 245.53638749 45.84277052 257.42167344 37 268.1875 C28.00732887 277.71093587 15.26277249 283.83571888 2.16015625 284.43359375 C0.12767496 284.45060744 -1.90499745 284.45174954 -3.9375 284.4375 C-4.94490234 284.45748047 -5.95230469 284.47746094 -6.99023438 284.49804688 C-19.79072944 284.48981505 -32.00970485 279.19714517 -41.58203125 270.7109375 C-50.63657686 261.25096448 -54.48657732 250.96008534 -54.30078125 238.00390625 C-54.07704842 233.20455017 -52.58685629 229.05798857 -50.90234375 224.5859375 C-49.29200684 219.97103258 -49.5040478 216.51885361 -51 211.9375 C-55.49043215 205.34217777 -61.63789798 202.65638007 -68.8125 199.75 C-80.3487642 194.96605168 -87.79364579 188.05570428 -92.9765625 176.56640625 C-94.87021928 171.81780891 -95.15092383 167.8051461 -95.125 162.75 C-95.12886719 162.01136719 -95.13273438 161.27273438 -95.13671875 160.51171875 C-95.12322837 152.86267414 -94.21827213 146.60988316 -90.625 139.75 C-90.32078125 139.13898438 -90.0165625 138.52796875 -89.703125 137.8984375 C-88.13661187 134.83235624 -86.64482693 132.23917863 -84 130 C-83.01 130.33 -82.02 130.66 -81 131 C-80.96132812 132.23363281 -80.96132812 132.23363281 -80.921875 133.4921875 C-80.41626563 143.44349922 -78.74383634 152.1085167 -71.67578125 159.52734375 C-65.68365078 164.79315538 -60.06632316 165.6089258 -52.17578125 165.30859375 C-43.04856746 164.42169352 -37.11888947 160.86688998 -31 154 C-25.94521808 146.42478963 -24.99389658 138.23968728 -26.42578125 129.359375 C-28.73600627 119.43816327 -34.41341308 112.03946033 -40.5 104.0625 C-51.82379854 89.09270841 -57.76082973 74.83467467 -56 56 C-54.16984441 43.975424 -47.9829927 33.02078175 -40 24 C-39.29359375 23.19949219 -38.5871875 22.39898438 -37.859375 21.57421875 C-28.97166788 12.1126365 -13.81168885 -1.15097407 0 0 Z " fill="#F32E93" transform="translate(237,552)"/>
<path d="M0 0 C0.66 0 1.32 0 2 0 C2.27038086 1.14436523 2.54076172 2.28873047 2.81933594 3.46777344 C16.6567212 61.71956631 35.87344133 120.00598814 68 171 C68.54881836 171.87188965 69.09763672 172.7437793 69.66308594 173.64208984 C81.29307667 192.00307195 93.64586549 209.66003034 108 226 C108.50450684 226.59063232 109.00901367 227.18126465 109.52880859 227.78979492 C120.48537322 240.53632494 132.58079489 252.84772001 146 263 C146.95003906 263.76699219 147.90007812 264.53398438 148.87890625 265.32421875 C169.7520704 281.96527703 194.5337022 296.54561165 220.16015625 304.32421875 C222 305 222 305 225 307 C214.00107449 312.19393704 198.8226216 306.76906959 187.91015625 302.90625 C184.89874185 301.68350835 181.95303362 300.35759042 179 299 C177.75185945 298.46354509 176.50312558 297.92846923 175.25390625 297.39453125 C157.84803678 289.77461442 141.60057492 279.12369167 127 267 C126.41734375 266.51740723 125.8346875 266.03481445 125.234375 265.53759766 C112.8873678 255.24950579 101.10365542 244.32200107 91.125 231.68359375 C88.89969996 228.87333432 86.58088871 226.16060556 84.25 223.4375 C67.53237289 203.35564453 54.11661156 181.08120544 42 158 C41.54270508 157.13600586 41.08541016 156.27201172 40.61425781 155.38183594 C20.09864827 116.40365481 4.90777991 73.57680546 -3.9375 30.4375 C-4.14947021 29.40794189 -4.36144043 28.37838379 -4.57983398 27.31762695 C-7.46894673 12.44824455 -7.46894673 12.44824455 -3 5 C-2.443125 4.05125 -1.88625 3.1025 -1.3125 2.125 C-0.6628125 1.073125 -0.6628125 1.073125 0 0 Z " fill="#7124BD" transform="translate(639,814)"/>
<path d="M0 0 C3.92704325 3.50628862 7.78405084 7.59108829 8.12988281 13.05029297 C7.93058733 15.38753334 7.56622997 17.63358152 7.125 19.9375 C6.97571045 20.80375 6.8264209 21.67 6.67260742 22.5625 C4.69162156 33.51194915 1.89499891 44.26322375 -1 55 C-1.28472168 56.07749512 -1.56944336 57.15499023 -1.86279297 58.26513672 C-9.18333851 85.81936257 -18.85537981 112.48296413 -30.79199219 138.37402344 C-31.88235633 140.74426529 -32.94910789 143.12331367 -34.0078125 145.5078125 C-42.27295174 163.88910425 -52.67126264 181.35299011 -64 198 C-64.40782715 198.60070312 -64.8156543 199.20140625 -65.23583984 199.8203125 C-73.92753912 212.52383434 -83.6381077 224.61926055 -94 236 C-94.43666992 236.48033691 -94.87333984 236.96067383 -95.32324219 237.45556641 C-104.67966993 247.72790023 -114.05588998 257.383213 -125 266 C-125.94673584 266.75337646 -125.94673584 266.75337646 -126.91259766 267.52197266 C-148.99783243 285.04985304 -173.61385188 298.76716376 -201 306 C-202.19625 306.3609375 -203.3925 306.721875 -204.625 307.09375 C-211.08393085 308.82809254 -216.7752314 308.55375122 -223 306 C-220.14942044 304.09961363 -217.64797003 302.98624888 -214.46875 301.75 C-188.31975417 291.43865451 -164.81299462 278.86795121 -143 261 C-142.14921875 260.30366455 -142.14921875 260.30366455 -141.28125 259.59326172 C-127.49484672 248.19907151 -114.06181587 235.73313393 -103.046875 221.6015625 C-101.16407901 219.20854317 -99.1937347 216.91963814 -97.18359375 214.63354492 C-81.01043437 196.10179979 -67.78206764 174.50983382 -56.05908203 152.94189453 C-55.01959267 151.03592442 -53.96185085 149.14099092 -52.90234375 147.24609375 C-31.34764337 108.18035676 -16.8758618 65.02091063 -5.76269531 21.95214844 C-4.77063645 18.11220739 -3.7557409 14.27845335 -2.74145508 10.44433594 C-1.82186864 6.96439072 -0.91044491 3.48234687 0 0 Z " fill="#7123BE" transform="translate(615,815)"/>
<path d="M0 0 C2.625 0.375 2.625 0.375 5 1 C6.40197748 5.67126964 7.45945704 10.25301238 8.3125 15.0625 C10.99879743 29.00857011 15.55710487 42.58222038 27.0625 51.69921875 C33.23415142 55.84268633 40.05690819 58.53720605 47.06640625 60.91015625 C49 62 49 62 49.77734375 64.12109375 C49.85082031 64.74113281 49.92429687 65.36117187 50 66 C49.41734375 66.21914063 48.8346875 66.43828125 48.234375 66.6640625 C32.76937103 72.64580932 21.2918641 78.53793767 13.5859375 93.80078125 C10.26856864 101.64646036 8.73270454 109.64186797 7.34301758 118.0168457 C7.19501709 118.89171631 7.0470166 119.76658691 6.89453125 120.66796875 C6.70661011 121.84782349 6.70661011 121.84782349 6.51489258 123.05151367 C6 125 6 125 4 127 C1.375 126.625 1.375 126.625 -1 126 C-2.62125302 121.55352546 -3.48130814 117.29818908 -4.1875 112.625 C-6.171109 101.13189422 -10.24407099 89.68603151 -18.71484375 81.3828125 C-20 80 -20 80 -20 78 C-20.5775 77.71898437 -21.155 77.43796875 -21.75 77.1484375 C-23.89352484 76.0543467 -25.93222178 74.85470144 -28 73.625 C-32.66118168 70.97589508 -37.4383523 69.50237064 -42.59375 68.08984375 C-45 67 -45 67 -45.84375 64.87890625 C-45.8953125 64.25886719 -45.946875 63.63882813 -46 63 C-42.69660889 60.16038547 -39.51320418 59.08332324 -35.375 57.8125 C-23.78829076 53.75775336 -16.4239657 47.00091506 -11 36 C-7.26150402 26.98792728 -5.12554738 17.72865683 -3.34301758 8.16992188 C-2.2019774 2.2019774 -2.2019774 2.2019774 0 0 Z " fill="#F32F94" transform="translate(251,354)"/>
<path d="M0 0 C1.64599718 1.64599718 1.54190181 3.74542095 1.91015625 6.00390625 C4.69246294 22.03806247 8.01576806 39.12331175 21.40234375 49.94140625 C27.82541005 54.04860581 33.96975665 56.59727015 41.2265625 58.76171875 C44 60 44 60 44.8984375 62.14453125 C44.93195313 62.75683594 44.96546875 63.36914062 45 64 C41.34497371 66.35305032 37.7858904 67.88419868 33.6875 69.3125 C24.89882778 72.63553069 18.49228271 77.36767253 13 85 C12.49597656 85.69867188 11.99195313 86.39734375 11.47265625 87.1171875 C6.03513517 95.77848063 4.55515712 105.66543178 2.53710938 115.53710938 C1.83770393 118.74420125 0.95410583 121.86012445 0 125 C-2.375 125.625 -2.375 125.625 -5 126 C-7.26489773 123.73510227 -7.39246863 122.91640604 -7.9296875 119.8515625 C-8.08284424 119.01681396 -8.23600098 118.18206543 -8.39379883 117.32202148 C-8.63199341 115.98699585 -8.63199341 115.98699585 -8.875 114.625 C-11.71390943 99.7875815 -15.41497466 85.50525353 -27.69921875 75.55859375 C-33.56687401 71.58373051 -39.97737644 68.61572349 -46.6875 66.375 C-47.780625 65.92125 -48.87375 65.4675 -50 65 C-50.70703125 62.9140625 -50.70703125 62.9140625 -51 61 C-47.30467413 59.00252656 -43.67312039 57.52536977 -39.6875 56.1875 C-27.78773297 51.86617539 -20.79323697 44.91936771 -15.30859375 33.46875 C-11.67186205 24.82969776 -9.79119599 15.97284847 -8.29199219 6.74267578 C-8.14922852 5.88013184 -8.00646484 5.01758789 -7.859375 4.12890625 C-7.74045898 3.35619385 -7.62154297 2.58348145 -7.49902344 1.78735352 C-7.3343457 1.19752686 -7.16966797 0.6077002 -7 0 C-4.31633121 -1.3418344 -2.84719317 -0.73004953 0 0 Z " fill="#F22F93" transform="translate(1029,393)"/>
<path d="M0 0 C6.42077884 0.22140617 11.40496339 5.75098198 16.0625 9.6875 C16.65466309 10.17959961 17.24682617 10.67169922 17.85693359 11.17871094 C23.96864975 16.26181863 29.9787468 21.39279356 35.5 27.12109375 C37.23954977 28.8649924 39.06771083 30.45930186 40.9375 32.0625 C44.05566519 34.77634514 47.12372921 37.53193573 50.125 40.375 C50.89972656 41.10074219 51.67445313 41.82648437 52.47265625 42.57421875 C54.0625 44.6875 54.0625 44.6875 54.0625 46.53515625 C52.61349742 49.6539079 50.84254427 52.54161867 49 55.4375 C48.62294922 56.03949219 48.24589844 56.64148438 47.85742188 57.26171875 C46.93056837 58.73999143 45.99717611 60.21416089 45.0625 61.6875 C36.9065625 60.26112002 29.04784311 58.07226961 21.125 55.6875 C20.47720581 55.49286163 19.82941162 55.29822327 19.1619873 55.09768677 C-7.06077555 47.18321656 -35.92314086 38.03040609 -58.9375 22.6875 C-58.9375 22.0275 -58.9375 21.3675 -58.9375 20.6875 C-39.4619335 10.85549937 -21.43903117 3.7433229 0 0 Z " fill="#6820B2" transform="translate(557.9375,584.3125)"/>
<path d="M0 0 C1.5440158 0.39396279 3.09358004 0.76612869 4.64453125 1.13183594 C12.20699283 3.0990979 18.99853296 6.86711708 25.89550781 10.45166016 C29.21148721 12.16310727 32.55396171 13.82055369 35.89453125 15.48339844 C34.66723362 19.16529133 33.89529261 19.30806365 30.53125 21.01464844 C29.12891113 21.72754028 29.12891113 21.72754028 27.69824219 22.45483398 C26.66989258 22.95926025 25.64154297 23.46368652 24.58203125 23.98339844 C23.51114258 24.51167236 22.44025391 25.03994629 21.33691406 25.58422852 C-7.14523075 39.36703842 -37.42453145 48.97492652 -68.10546875 56.48339844 C-69.23384284 54.9024679 -70.35803393 53.31855128 -71.48046875 51.73339844 C-72.10695313 50.85167969 -72.7334375 49.96996094 -73.37890625 49.06152344 C-77.22943957 43.3118583 -77.22943957 43.3118583 -76.81616211 40.55004883 C-76.02410589 38.24680051 -75.17324417 37.1899893 -73.4453125 35.49511719 C-72.63199463 34.68844604 -72.63199463 34.68844604 -71.80224609 33.86547852 C-71.22168457 33.30626709 -70.64112305 32.74705566 -70.04296875 32.17089844 C-69.15279053 31.29824341 -69.15279053 31.29824341 -68.24462891 30.40795898 C-64.62915541 26.88659226 -60.95067642 23.46362609 -57.09765625 20.20214844 C-54.70085323 18.13431838 -52.41460693 15.96114373 -50.10546875 13.79589844 C-32.34166288 -2.44386783 -23.33911658 -5.98633185 0 0 Z " fill="#6921B4" transform="translate(721.10546875,589.5166015625)"/>
<path d="M0 0 C2.125 0.375 2.125 0.375 4 1 C5.06385775 4.63130111 6.08224895 8.2577446 6.96484375 11.9375 C7.12533203 12.60523438 7.28582031 13.27296875 7.45117188 13.9609375 C7.77518158 15.31943601 8.0955012 16.67881997 8.41210938 18.0390625 C11.00790962 28.75320214 15.78128622 37.30756619 24.91796875 43.75390625 C28.12882592 45.67560125 31.45262416 46.85788113 35 48 C36.66905395 48.66066719 38.3369416 49.32438252 40 50 C40 51.32 40 52.64 40 54 C38.64611467 54.60479685 37.29187368 55.20879754 35.9375 55.8125 C34.70193359 56.36744141 34.70193359 56.36744141 33.44140625 56.93359375 C31.44390015 57.80610441 29.41305987 58.60194281 27.375 59.375 C18.92462401 63.44369955 13.29137745 70.19194896 10 79 C7.86353816 86.55603684 6.39849045 94.27836992 5 102 C2.625 102.625 2.625 102.625 0 103 C-2.61747187 100.38252813 -2.4464726 98.77185562 -2.875 95.125 C-4.70036321 82.48679823 -8.57937851 71.03092223 -18.6875 62.625 C-22.91587976 59.6842408 -27.54590566 58.27789052 -32.4609375 56.859375 C-35 56 -35 56 -37 54 C-37 52.68 -37 51.36 -37 50 C-36.16597656 49.70867188 -35.33195313 49.41734375 -34.47265625 49.1171875 C-24.06697336 45.32680129 -15.77580377 41.95891976 -10.34375 31.89453125 C-6.20668166 22.98299741 -3.54170861 14.32089079 -2.45703125 4.546875 C-2 2 -2 2 0 0 Z " fill="#F22E93" transform="translate(926,859)"/>
<path d="M0 0 C0.66 0 1.32 0 2 0 C5.12304732 6.31310541 8.23692402 12.63067213 11.34448242 18.95141602 C12.4025983 21.10089125 13.46280512 23.24933851 14.52514648 25.39672852 C16.05223351 28.48445707 17.57174972 31.57581084 19.08984375 34.66796875 C19.56590561 35.62648239 20.04196747 36.58499603 20.53245544 37.57255554 C20.97283646 38.47311172 21.41321747 39.37366791 21.86694336 40.30151367 C22.25555038 41.08983078 22.64415741 41.87814789 23.04454041 42.69035339 C24.7061744 46.70704581 25.38913985 49.02065961 23.75585938 53.13110352 C23.12486328 54.28537842 22.49386719 55.43965332 21.84375 56.62890625 C21.50380005 57.25925278 21.1638501 57.8895993 20.81359863 58.53904724 C19.72226015 60.55437714 18.61139509 62.55817476 17.5 64.5625 C16.78258865 65.88277667 16.06643048 67.20373511 15.3515625 68.52539062 C11.05251159 76.43978707 6.5875079 84.24903826 2 92 C-1.97764501 90.67411833 -2.3181434 89.13291446 -4.29296875 85.48828125 C-4.92009766 84.34367432 -5.54722656 83.19906738 -6.19335938 82.01977539 C-6.8584342 80.78421133 -7.52314162 79.54844944 -8.1875 78.3125 C-9.19909648 76.45060562 -10.21330134 74.59014999 -11.22781372 72.72984314 C-11.89452081 71.50687039 -12.56011557 70.28329058 -13.22457886 69.05909729 C-15.0259934 65.74794986 -16.86878759 62.4710258 -18.80078125 59.234375 C-19.18274658 58.59330811 -19.56471191 57.95224121 -19.95825195 57.29174805 C-20.92258495 55.69100499 -21.89830645 54.09713761 -22.875 52.50390625 C-24.2055106 49.54259621 -24.00670372 48.99065971 -23 46 C-22.16470936 44.17788214 -21.28409587 42.37628397 -20.375 40.58984375 C-19.83713867 39.52564209 -19.29927734 38.46144043 -18.74511719 37.36499023 C-17.88128418 35.66838257 -17.88128418 35.66838257 -17 33.9375 C-12.41191829 24.85824111 -7.91618985 15.7504621 -3.62890625 6.52514648 C-1.09598495 1.09598495 -1.09598495 1.09598495 0 0 Z " fill="#F5369D" transform="translate(627,174)"/>
<path d="M0 0 C1.67542976 0.28604898 3.34385343 0.61781233 5 1 C5.10957031 1.82242188 5.21914063 2.64484375 5.33203125 3.4921875 C7.20583365 16.68497513 10.00023064 31.26130328 21.21484375 39.86328125 C24.01110012 41.64382961 26.90221241 42.83832965 30 44 C31.31527961 44.55596946 32.6278792 45.11832879 33.9375 45.6875 C34.948125 46.120625 35.95875 46.55375 37 47 C37 48.32 37 49.64 37 51 C36.45472656 51.14695312 35.90945313 51.29390625 35.34765625 51.4453125 C26.19903631 54.16644048 18.36156303 58.94945735 13 67 C8.92036554 74.58031089 6.87603582 82.19582335 6.34375 90.765625 C6 93 6 93 4 96 C2.68 95.67 1.36 95.34 0 95 C-0.99747603 91.54179016 -1.97733658 88.08600222 -2.89453125 84.60546875 C-5.89547277 73.43175031 -8.90208359 63.57416433 -19 57 C-22.26206821 55.41371988 -25.57391055 54.17929017 -29 53 C-30.66970065 52.34096892 -32.3372314 51.67633039 -34 51 C-33.67 49.35 -33.34 47.7 -33 46 C-32.38253906 45.85304688 -31.76507813 45.70609375 -31.12890625 45.5546875 C-21.59128383 43.02874184 -14.44947277 39.06859836 -9.2734375 30.4609375 C-5.25827351 22.7015715 -3.38622273 14.77027503 -1.95043945 6.21850586 C-1.08896624 1.08896624 -1.08896624 1.08896624 0 0 Z " fill="#F22D93" transform="translate(321,873)"/>
<path d="M0 0 C1.93408203 0.75439453 1.93408203 0.75439453 4 2 C4.72607422 3.78076172 4.72607422 3.78076172 5.0546875 5.9296875 C5.25904419 7.11437622 5.25904419 7.11437622 5.4675293 8.32299805 C5.60199463 9.16515869 5.73645996 10.00731934 5.875 10.875 C8.00622922 22.24404601 11.21183683 31.79015192 20.4140625 39.390625 C24.24381779 41.77409808 28.23574509 42.93712884 32.59375 44.015625 C35 45 35 45 35.96875 46.984375 C35.9790625 47.64953125 35.989375 48.3146875 36 49 C33.44791528 51.55208472 31.09153349 52.12899119 27.6875 53.3125 C22.70585659 55.18335947 19.32869561 56.7049089 16 61 C15.319375 61.763125 14.63875 62.52625 13.9375 63.3125 C9.26164484 69.79836361 7.32084639 76.11753884 5.66015625 83.921875 C4.92662966 87.34210549 4.01166148 90.6537351 3 94 C1.35 93.67 -0.3 93.34 -2 93 C-2.17015625 91.96101563 -2.3403125 90.92203125 -2.515625 89.8515625 C-4.90474878 75.82346333 -7.97412508 64.75019453 -19.82421875 55.58984375 C-24.18036202 52.91929438 -29.13370784 51.45657724 -34 50 C-33.67 48.35 -33.34 46.7 -33 45 C-32.23816406 44.8040625 -31.47632813 44.608125 -30.69140625 44.40625 C-21.94509636 41.87298671 -15.50577128 38.37727325 -10.44140625 30.609375 C-6.03539561 22.29417391 -3.90709271 13.50088823 -2.52734375 4.25 C-2 2 -2 2 0 0 Z " fill="#F12F94" transform="translate(928,241)"/>
<path d="M0 0 C2.24111314 4.46826295 4.13481186 8.986555 3 14 C-0.75694201 19.70104793 -6.42553219 23.93683591 -11.71142578 28.15942383 C-14.62782105 30.50492243 -17.42809122 32.96899183 -20.23120117 35.44775391 C-22.77897469 37.6836054 -25.38537056 39.84293071 -28 42 C-28.27972656 41.4946875 -28.55945313 40.989375 -28.84765625 40.46875 C-30.1110842 38.42126548 -31.28545186 36.69332848 -33 35 C-36.71158857 34.41439551 -36.71158857 34.41439551 -40 35 C-41.32 37.31 -42.64 39.62 -44 42 C-47.58678086 40.48330118 -49.84333396 38.37544767 -52.5546875 35.60546875 C-53.41707031 34.73212891 -54.27945313 33.85878906 -55.16796875 32.95898438 C-56.06128906 32.04439453 -56.95460938 31.12980469 -57.875 30.1875 C-59.64083172 28.38696853 -61.40900023 26.58872536 -63.1796875 24.79296875 C-64.00944092 23.95121094 -64.83919434 23.10945312 -65.6940918 22.2421875 C-67.60876917 20.38041969 -69.53137576 18.70934069 -71.63671875 17.07421875 C-72.41660156 16.38972656 -73.19648437 15.70523438 -74 15 C-73.9375 11.625 -73.9375 11.625 -73 8 C-72.814375 6.700625 -72.62875 5.40125 -72.4375 4.0625 C-72.293125 3.051875 -72.14875 2.04125 -72 1 C-67.581529 0.90758753 -63.39782295 1.13143026 -59.00390625 1.7121582 C-40.10373797 4.19470036 -22.02916538 2.75119983 -3.18286133 0.27539062 C-1 0 -1 0 0 0 Z " fill="#5F22AA" transform="translate(664,577)"/>
<path d="M0 0 C2.0625 0.4375 2.0625 0.4375 4 1 C5.25551378 5.24561897 6.3390635 9.47172238 7.29272461 13.79785156 C9.26957813 22.50740588 11.91322115 29.91322115 18.375 36.375 C23.67792658 39.65776407 29.01014004 42.20304201 35 44 C35 45.32 35 46.64 35 48 C34.41992188 48.17015625 33.83984375 48.3403125 33.2421875 48.515625 C28.23400482 50.06931864 24.24008841 51.8199337 20 55 C19.19304687 55.57363281 18.38609375 56.14726562 17.5546875 56.73828125 C9.98314249 63.44152982 7.22183825 74.1455924 6.06201172 83.84472656 C5.80078125 85.796875 5.80078125 85.796875 5 89 C2.91796875 90.453125 2.91796875 90.453125 1 91 C-1.77493308 88.22506692 -1.71564765 85.84751487 -2.375 82 C-4.43969432 71.03792275 -7.3504069 62.49433922 -16 55 C-20.98982257 51.84285918 -26.33050822 49.64116867 -32 48 C-32 46.68 -32 45.36 -32 44 C-31.154375 43.72027344 -30.30875 43.44054687 -29.4375 43.15234375 C-21.01519317 40.17582395 -13.98872215 37.33371953 -9.4765625 29.28125 C-8.20648363 26.55021336 -7.07093872 23.81432734 -6 21 C-5.65839844 20.22398437 -5.31679688 19.44796875 -4.96484375 18.6484375 C-3.72724177 15.25129521 -3.08305938 11.7954531 -2.4375 8.25 C-1.13019031 1.13019031 -1.13019031 1.13019031 0 0 Z " fill="#F22F94" transform="translate(334,231)"/>
<path d="M0 0 C5.36077913 3.00701344 8.88258968 7.74038558 11.58203125 13.1953125 C13.315641 19.95958123 13.78070165 26.61543422 10.51953125 32.9453125 C7.05058313 38.4975949 2.1234283 43.63783701 -4.41796875 45.1953125 C-11.65251199 46.24944754 -17.5285282 44.51756294 -23.41796875 40.1953125 C-29.17418496 33.75161297 -30.86334049 27.4014457 -30.76171875 18.890625 C-29.9832169 12.78646274 -27.00565108 7.23020353 -22.35546875 3.1953125 C-15.50126118 -1.47138202 -8.09737828 -2.69476563 0 0 Z " fill="#0E0427" transform="translate(703.41796875,438.8046875)"/>
<path d="M0 0 C4.7379891 3.60989646 9.50906518 8.32727951 11.625 14 C12.42048315 22.02882992 12.88527937 30.39597325 7.625 37 C2.70516911 42.14866024 -2.82363564 44.69657571 -9.89453125 45.16796875 C-16.4796869 44.8948517 -20.74142082 42.62287807 -25.375 38 C-31.30211818 30.85309808 -31.17902951 22.85356635 -30.375 14 C-25.84026347 0.70081753 -12.74229033 -3.77549343 0 0 Z " fill="#0D0426" transform="translate(570.375,439)"/>
<path d="M0 0 C3.89407036 1.50186278 7.63740854 3.22282309 11.39453125 5.0390625 C11.98674973 5.32478119 12.5789682 5.61049988 13.18913269 5.90487671 C15.06434764 6.81002262 16.93843663 7.71747259 18.8125 8.625 C20.09042086 9.24234056 21.36841493 9.85952961 22.64648438 10.4765625 C25.76517152 11.98262354 28.88285375 13.49075182 32 15 C29.99038452 21.21233818 27.56437809 27.22918731 25.05175781 33.25073242 C24.51639187 34.54399005 23.98905404 35.84059974 23.46972656 37.14038086 C22.712537 39.03311605 21.92962538 40.91330892 21.140625 42.79296875 C20.68204102 43.9121167 20.22345703 45.03126465 19.75097656 46.18432617 C17.59520433 49.65093537 15.78314531 50.57995596 12 52 C6.1136658 52.75952699 2.69051062 51.95041116 -2.17578125 48.546875 C-7.35670969 44.15362519 -10.33346685 38.82904137 -11 32 C-11.28878865 20.17665278 -7.45334917 9.15697184 0 0 Z " fill="#6122AF" transform="translate(445,839)"/>
<path d="M0 0 C1.31942401 2.72600814 2.63067715 5.45545839 3.9375 8.1875 C4.49727539 9.34088867 4.49727539 9.34088867 5.06835938 10.51757812 C9.29846731 19.39699389 11.08741819 29.35664003 8.05859375 38.99609375 C5.31767701 44.77865478 2.32956699 48.24759632 -3.375 51.25 C-7.72521988 52.49291996 -11.40622886 52.74118641 -15.56030273 50.80932617 C-18.46247467 48.65701993 -19.22772319 47.08013635 -20.53515625 43.73828125 C-21.16067383 42.18270508 -21.16067383 42.18270508 -21.79882812 40.59570312 C-22.21583984 39.51224609 -22.63285156 38.42878906 -23.0625 37.3125 C-23.9049312 35.18255528 -24.74993543 33.05362623 -25.59765625 30.92578125 C-25.99871582 29.91209473 -26.39977539 28.8984082 -26.81298828 27.85400391 C-27.88025679 25.28790584 -29.03981926 22.82659267 -30.30859375 20.35546875 C-32 17 -32 17 -32 15 C-31.19780029 14.61666504 -30.39560059 14.23333008 -29.5690918 13.83837891 C-26.5882326 12.41262853 -23.6083679 10.98483975 -20.62915039 9.55566406 C-19.34047985 8.93798368 -18.05142034 8.32111409 -16.76196289 7.70507812 C-14.90668081 6.81854642 -13.05282534 5.92909106 -11.19921875 5.0390625 C-9.52605591 4.23782959 -9.52605591 4.23782959 -7.8190918 3.42041016 C-1.03059471 0 -1.03059471 0 0 0 Z " fill="#6123AE" transform="translate(810,839)"/>
<path d="M0 0 C3.05635722 2.83568011 5.12731115 5.61546082 7.1640625 9.24609375 C7.72867188 10.24833984 8.29328125 11.25058594 8.875 12.28320312 C9.4525 13.32412109 10.03 14.36503906 10.625 15.4375 C11.21023438 16.47455078 11.79546875 17.51160156 12.3984375 18.58007812 C15.56560681 24.23521873 15.56560681 24.23521873 17 27 C17.66116821 28.24185059 17.66116821 28.24185059 18.33569336 29.50878906 C19 32 19 32 18.11303711 34.55200195 C17.5897583 35.43847412 17.06647949 36.32494629 16.52734375 37.23828125 C15.95693359 38.22376953 15.38652344 39.20925781 14.79882812 40.22460938 C14.18458984 41.24361328 13.57035156 42.26261719 12.9375 43.3125 C12.35033203 44.31990234 11.76316406 45.32730469 11.15820312 46.36523438 C7.87329491 51.97405986 4.47249479 57.50571241 1 63 C-3.39643565 57.74311994 -6.44836336 52.01195239 -9.6875 46 C-10.28111328 44.91976562 -10.87472656 43.83953125 -11.48632812 42.7265625 C-12.05158203 41.68242188 -12.61683594 40.63828125 -13.19921875 39.5625 C-13.71315186 38.61503906 -14.22708496 37.66757812 -14.7565918 36.69140625 C-16.01130512 33.97552962 -16.82521184 31.98803129 -17 29 C-15.87597656 26.30859375 -15.87597656 26.30859375 -14.140625 23.4375 C-13.51929688 22.39335938 -12.89796875 21.34921875 -12.2578125 20.2734375 C-11.59523438 19.19320312 -10.93265625 18.11296875 -10.25 17 C-9.27933594 15.37964844 -9.27933594 15.37964844 -8.2890625 13.7265625 C-6.5389136 10.80964766 -4.77132203 7.90408299 -3 5 C-1.9985722 3.33419084 -0.99810757 1.66780067 0 0 Z " fill="#F3349C" transform="translate(627,749)"/>
<path d="M0 0 C7.00362883 1.95183098 13.74141547 4.37303422 20.5300293 6.95263672 C26.00048549 8.99253924 31.51373198 10.81545124 37.08984375 12.5390625 C37.79189438 12.7578154 38.49394501 12.9765683 39.2172699 13.20195007 C42.75658307 14.30408298 46.29979748 15.38864556 49.85229492 16.44750977 C51.16478146 16.8535846 52.47704777 17.2603721 53.7890625 17.66796875 C54.96162598 18.02141357 56.13418945 18.3748584 57.34228516 18.73901367 C60 20 60 20 60.95068359 22.08325195 C60.96695801 22.71577881 60.98323242 23.34830566 61 24 C60.505 24.495 60.505 24.495 60 25 C59.78673597 30.6047709 59.78673597 30.6047709 61 36 C52.52050922 35.64128057 44.91876794 33.39814666 36.875 30.8125 C35.57984145 30.4024699 34.28459337 29.9927225 32.98925781 29.58325195 C20.72422133 25.68118807 8.68474223 21.42505889 -3 16 C-2.57910004 10.39538469 -2.08386889 5.27913453 0 0 Z " fill="#7325C1" transform="translate(539,751)"/>
<path d="M0 0 C0.50806447 1.72681437 1.00610467 3.45657979 1.5 5.1875 C1.7784375 6.15042969 2.056875 7.11335937 2.34375 8.10546875 C2.96677608 10.85345876 3.12302812 13.19598416 3 16 C-9.13930803 21.31985645 -21.40124222 25.95512368 -34.0625 29.875 C-35.24932373 30.24359131 -36.43614746 30.61218262 -37.65893555 30.99194336 C-45.37204915 33.33314575 -53.12369348 35.28928681 -61 37 C-60.51273438 35.59427734 -60.51273438 35.59427734 -60.015625 34.16015625 C-58.33729919 28.93798095 -58.91537872 25.97165631 -61 21 C-52.8448331 17.98354364 -44.63349324 15.1436523 -36.40411377 12.33828735 C-25.72863599 8.69770925 -15.08026997 5.0258196 -4.5703125 0.92578125 C-2 0 -2 0 0 0 Z " fill="#7324C1" transform="translate(716,751)"/>
<path d="M0 0 C3.92712593 0.44539355 5.43664222 1.66957176 8.453125 4.17578125 C13.53309785 8.09837966 17.97830787 10.02067363 24.203125 11.36328125 C24.85410156 11.54375 25.50507812 11.72421875 26.17578125 11.91015625 C38.19786603 14.59717327 49.18835099 10.01004948 59.2421875 3.73046875 C61.30809779 2.37539558 61.30809779 2.37539558 63.203125 0.36328125 C66.34016816 0.02955325 68.36866666 -0.16520903 71.078125 1.55078125 C72.67839084 4.12898733 72.76104084 5.36448362 72.203125 8.36328125 C67.05828478 16.81551875 56.90231547 21.30486573 47.65234375 23.85546875 C32.95336684 26.90310352 19.38594598 26.38957425 6.24609375 18.61328125 C2.21809822 15.87683919 -1.58854291 13.05143087 -4.796875 9.36328125 C-5.171875 5.73828125 -5.171875 5.73828125 -4.796875 2.36328125 C-2.796875 0.36328125 -2.796875 0.36328125 0 0 Z " fill="#0F052B" transform="translate(594.796875,497.63671875)"/>
<path d="M0 0 C0.66 0 1.32 0 2 0 C3.40454102 1.94018555 3.40454102 1.94018555 5.00390625 4.63671875 C5.57947266 5.60673828 6.15503906 6.57675781 6.74804688 7.57617188 C7.34681641 8.60291016 7.94558594 9.62964844 8.5625 10.6875 C9.16513672 11.69490234 9.76777344 12.70230469 10.38867188 13.74023438 C10.96294922 14.71669922 11.53722656 15.69316406 12.12890625 16.69921875 C12.65556885 17.59471436 13.18223145 18.49020996 13.72485352 19.4128418 C15.05198384 22.10547057 15.83420984 23.99954583 16 27 C14.86010742 29.77075195 14.86010742 29.77075195 13.10546875 32.73828125 C12.47962891 33.80498047 11.85378906 34.87167969 11.20898438 35.97070312 C10.54189453 37.07349609 9.87480469 38.17628906 9.1875 39.3125 C8.53201172 40.43462891 7.87652344 41.55675781 7.20117188 42.71289062 C3.60006138 48.77617287 3.60006138 48.77617287 2 51 C1.34 51 0.68 51 0 51 C-2.45199042 47.67883388 -4.53798744 44.12716774 -6.66943359 40.59350586 C-7.74193456 38.82579357 -8.84069092 37.07641285 -9.94140625 35.32617188 C-10.61558594 34.21435547 -11.28976562 33.10253906 -11.984375 31.95703125 C-12.61053711 30.93585205 -13.23669922 29.91467285 -13.88183594 28.86254883 C-15 26 -15 26 -14.37402344 23.4453125 C-13.69388184 22.23488281 -13.69388184 22.23488281 -13 21 C-12.54173828 20.17653076 -12.08347656 19.35306152 -11.61132812 18.50463867 C-9.91494834 15.7275769 -8.213183 12.95423481 -6.5 10.1875 C-5.90574219 9.20845703 -5.31148437 8.22941406 -4.69921875 7.22070312 C-4.12816406 6.29580078 -3.55710937 5.37089844 -2.96875 4.41796875 C-2.44732422 3.57000732 -1.92589844 2.7220459 -1.38867188 1.84838867 C-0.93041016 1.23842041 -0.47214844 0.62845215 0 0 Z " fill="#F4389E" transform="translate(627,628)"/>
<path d="M0 0 C0.66 0 1.32 0 2 0 C2.98878749 2.8302908 3.96614336 5.66372753 4.9375 8.5 C5.35418945 9.68722656 5.35418945 9.68722656 5.77929688 10.8984375 C6.57989757 13.25201064 7.31165184 15.61129346 8 18 C8.30635376 19.04160278 8.30635376 19.04160278 8.61889648 20.10424805 C9.2546833 23.02388082 9.36322102 25.29611289 7.9777832 27.98095703 C6.48276441 30.03994667 4.88998818 31.92191279 3.1875 33.8125 C2.07638019 35.11029817 0.96568642 36.40846124 -0.14453125 37.70703125 C-0.64315674 38.2688208 -1.14178223 38.83061035 -1.65551758 39.40942383 C-3.19538521 41.17011966 -3.19538521 41.17011966 -5 44 C-5.66 44 -6.32 44 -7 44 C-8.20729806 40.61088113 -9.38726181 37.21285584 -10.5625 33.8125 C-10.90474609 32.85279297 -11.24699219 31.89308594 -11.59960938 30.90429688 C-11.91865234 29.97294922 -12.23769531 29.04160156 -12.56640625 28.08203125 C-13.01415405 26.80162964 -13.01415405 26.80162964 -13.47094727 25.49536133 C-14.28059468 21.67653057 -13.6561242 19.1422817 -11.72485352 15.7800293 C-11.19819092 15.05211182 -10.67152832 14.32419434 -10.12890625 13.57421875 C-9.26749023 12.38022461 -9.26749023 12.38022461 -8.38867188 11.16210938 C-7.78603516 10.34548828 -7.18339844 9.52886719 -6.5625 8.6875 C-5.96373047 7.85154297 -5.36496094 7.01558594 -4.74804688 6.15429688 C-1.42541656 1.59637735 -1.42541656 1.59637735 0 0 Z " fill="#F440A3" transform="translate(708,221)"/>
<path d="M0 0 C0.66 0 1.32 0 2 0 C3.70690474 2.19756551 5.30431436 4.39558115 6.875 6.6875 C7.74603168 7.94235425 8.61840783 9.19627643 9.4921875 10.44921875 C9.91209961 11.05507812 10.33201172 11.6609375 10.76464844 12.28515625 C11.88327742 13.83797245 13.09736688 15.32090457 14.3203125 16.79296875 C16 19 16 19 16 21.625 C14.82704374 25.58372739 13.44005508 29.43251704 11.98828125 33.296875 C10.81747726 36.49923217 9.87810802 39.70709494 9 43 C4.36018541 40.94210356 1.86637431 37.78759569 -1.3125 33.9375 C-1.87517578 33.30650391 -2.43785156 32.67550781 -3.01757812 32.02539062 C-5.91101684 28.51572384 -7.43212503 26.13192305 -7.01171875 21.5 C-6.20170585 17.24160728 -4.95774995 13.14003485 -3.5 9.0625 C-3.27441406 8.40443359 -3.04882812 7.74636719 -2.81640625 7.06835938 C-1.97957139 4.64946098 -1.14587191 2.29174382 0 0 Z " fill="#F03A9F" transform="translate(546,221)"/>
<path d="M0 0 C3.36515338 3.20381041 6.03047329 6.32120751 8.5 10.25 C26.96725482 38.52472348 50.18242642 63.33084401 76.875 83.875 C77.60074219 84.43477539 78.32648438 84.99455078 79.07421875 85.57128906 C82.61037913 88.27261381 86.1092915 90.81815171 90 93 C89.34 93.66 88.68 94.32 88 95 C78.29369875 88.05925623 68.97764604 80.8613157 60 73 C59.13890625 72.25105469 58.2778125 71.50210937 57.390625 70.73046875 C48.01028269 62.44051655 39.01850636 53.62220763 31 44 C30.36320313 43.25234375 29.72640625 42.5046875 29.0703125 41.734375 C0 7.02037546 0 7.02037546 0 0 Z " fill="#120432" transform="translate(698,1003)"/>
<path d="M0 0 C0 0.33 0 0.66 0 1 C-0.59200195 1.11480713 -1.18400391 1.22961426 -1.79394531 1.34790039 C-13.79922976 3.7154165 -25.35103738 6.45278264 -36.79003906 10.85180664 C-37.56573242 11.14563232 -38.34142578 11.43945801 -39.140625 11.7421875 C-39.81641602 12.0088623 -40.49220703 12.27553711 -41.18847656 12.55029297 C-43 13 -43 13 -46 12 C-32.96507378 4.667854 -14.96948864 -0.89816932 0 0 Z " fill="#0D0321" transform="translate(562,583)"/>
<path d="M0 0 C6.59289304 0.51184685 11.97647459 2.28544649 18.0625 4.8125 C19.35124023 5.32780273 19.35124023 5.32780273 20.66601562 5.85351562 C25.69261456 7.90025148 30.35393834 10.19471175 35 13 C33.38671875 13.6953125 33.38671875 13.6953125 31 14 C28.14453125 12.7421875 28.14453125 12.7421875 24.8125 10.875 C16.89841339 6.61826177 8.65703594 4.27430605 0 2 C0 1.34 0 0.68 0 0 Z " fill="#12052C" transform="translate(716,587)"/>
<path d="M0 0 C0.66 0.33 1.32 0.66 2 1 C-1.77875235 5.43026138 -5.99953089 7.83072793 -11.14453125 10.50390625 C-14.52247051 12.2737431 -17.7741934 14.22646961 -21.02734375 16.21484375 C-23.45727644 17.18200508 -24.54630558 16.71788197 -27 16 C-26.43079834 15.69296143 -25.86159668 15.38592285 -25.27514648 15.06958008 C-22.65996631 13.65535906 -20.04873558 12.23399023 -17.4375 10.8125 C-16.54224609 10.32974609 -15.64699219 9.84699219 -14.72460938 9.34960938 C-9.54597256 6.5231739 -4.71994255 3.54157555 0 0 Z " fill="#0D0522" transform="translate(714,540)"/>
<path d="M0 0 C0.80244141 0.14179687 1.60488281 0.28359375 2.43164062 0.4296875 C3.26501953 0.58953125 4.09839844 0.749375 4.95703125 0.9140625 C6.22450195 1.14222656 6.22450195 1.14222656 7.51757812 1.375 C9.60356142 1.75212692 11.68683645 2.14417847 13.76953125 2.5390625 C13.76953125 2.8690625 13.76953125 3.1990625 13.76953125 3.5390625 C7.33641829 3.63413313 1.1119512 3.69222976 -5.23046875 2.5390625 C-5.16859375 3.5703125 -5.10671875 4.6015625 -5.04296875 5.6640625 C-5.2418247 9.77375223 -6.17514678 12.02788746 -8.23046875 15.5390625 C-9.36295959 12.14158997 -9.09363596 10.46511228 -8.48046875 6.9765625 C-8.320625 6.00589844 -8.16078125 5.03523437 -7.99609375 4.03515625 C-6.63384813 -0.40604249 -4.0952988 -0.75516148 0 0 Z " fill="#0F0524" transform="translate(597.23046875,575.4609375)"/>
<path d="M0 0 C0 6.83681831 -9.56509883 13.60501716 -14.2824707 18.34619141 C-16.84535014 20.90731328 -19.42011881 23.45600587 -22 26 C-22.66 25.67 -23.32 25.34 -24 25 C-23.07058594 24.0821875 -22.14117187 23.164375 -21.18359375 22.21875 C-12.48785831 13.6385859 -12.48785831 13.6385859 -4.33203125 4.55078125 C-2.95880466 2.95203945 -1.50744542 1.47187149 0 0 Z " fill="#0D042C" transform="translate(526,1045)"/>
<path d="M0 0 C5 5 5 5 6 7 C5.52006592 7.39872314 5.04013184 7.79744629 4.5456543 8.20825195 C2.61943761 10.44115423 2.5108534 11.7535397 2.26953125 14.66796875 C2.18896484 15.56064453 2.10839844 16.45332031 2.02539062 17.37304688 C1.95513672 18.30181641 1.88488281 19.23058594 1.8125 20.1875 C1.73064453 21.12787109 1.64878906 22.06824219 1.56445312 23.03710938 C1.36423093 25.35733128 1.17657633 27.67787859 1 30 C0.67 30 0.34 30 0 30 C0 20.1 0 10.2 0 0 Z " fill="#D3CFDB" transform="translate(876,779)"/>
<path d="M0 0 C0.33 0 0.66 0 1 0 C1.33896268 2.83275953 1.67129694 5.66604661 2 8.5 C2.14308594 9.68722656 2.14308594 9.68722656 2.2890625 10.8984375 C2.87107882 15.97029404 3.09367085 20.89493859 3 26 C2.67 26 2.34 26 2 26 C1.67 24.35 1.34 22.7 1 21 C0.34 21.33 -0.32 21.66 -1 22 C-1.10331031 14.57313685 -0.99862699 7.36487404 0 0 Z " fill="#3E3758" transform="translate(747,192)"/>
<path d="M0 0 C0.33 0 0.66 0 1 0 C2.26693763 9.66039945 2.08984092 19.27721582 2 29 C1.67 29 1.34 29 1 29 C-2.63179916 5.26359833 -2.63179916 5.26359833 0 0 Z " fill="#292540" transform="translate(745,172)"/>
<path d="M0 0 C2.34830773 8.38165222 -1.62230607 15.40953651 -5 23 C-5.66 23 -6.32 23 -7 23 C-6.33654156 17.74272175 -4.74419696 13.07140932 -2.9375 8.125 C-2.65583984 7.34125 -2.37417969 6.5575 -2.08398438 5.75 C-1.39386218 3.83169424 -0.69755684 1.91561481 0 0 Z " fill="#1A162D" transform="translate(395,478)"/>
<path d="M0 0 C3.47780678 3.10518463 6.69315152 6.45084389 8 11 C7.74497931 14.78450706 6.97923396 18.34110554 6 22 C5.34 21.67 4.68 21.34 4 21 C4.09539063 20.26394531 4.19078125 19.52789063 4.2890625 18.76953125 C4.45535156 17.30580078 4.45535156 17.30580078 4.625 15.8125 C4.74101563 14.84957031 4.85703125 13.88664063 4.9765625 12.89453125 C5.00194942 9.75924677 4.34359283 7.80513465 3 5 C1.68 5.99 0.36 6.98 -1 8 C-0.67 5.36 -0.34 2.72 0 0 Z " fill="#7C30C4" transform="translate(615,815)"/>
<path d="M0 0 C0.66 0.33 1.32 0.66 2 1 C1.67 1.99 1.34 2.98 1 4 C0.34 4 -0.32 4 -1 4 C-1.165 4.680625 -1.33 5.36125 -1.5 6.0625 C-3.72785903 10.4253906 -7.25229423 12.93186027 -11 16 C-12.33586595 17.14287969 -13.66941241 18.28847935 -15 19.4375 C-15.99 20.283125 -16.98 21.12875 -18 22 C-16.4569132 18.26230086 -14.1591509 16.01810116 -11.25 13.25 C-7.01240824 9.11067124 -3.35192617 4.87800638 0 0 Z " fill="#07031B" transform="translate(740,514)"/>
<path d="M0 0 C1.98 0.495 1.98 0.495 4 1 C6.42857143 8.42857143 6.42857143 8.42857143 5 12 C5 11.01 5 10.02 5 9 C3.68 9 2.36 9 1 9 C-0.61949011 6.42786866 -1.04408751 5.32330841 -0.625 2.25 C-0.41875 1.5075 -0.2125 0.765 0 0 Z " fill="#F43CA0" transform="translate(334,231)"/>
<path d="M0 0 C0.66 0.33 1.32 0.66 2 1 C2.02714434 3.7084017 2.04690846 6.41652721 2.0625 9.125 C2.07087891 9.88554688 2.07925781 10.64609375 2.08789062 11.4296875 C2.10646509 15.7389644 1.86117265 19.75516474 1 24 C0.67 24 0.34 24 0 24 C-0.19647038 21.31288976 -0.38239615 18.62571669 -0.5625 15.9375 C-0.61857422 15.18533203 -0.67464844 14.43316406 -0.73242188 13.65820312 C-1.04000617 8.92140498 -0.83807173 4.67457788 0 0 Z " fill="#130F25" transform="translate(909,575)"/>
<path d="M0 0 C2.25390625 1.015625 2.25390625 1.015625 4 2 C3.31035156 2.00257813 2.62070312 2.00515625 1.91015625 2.0078125 C-5.63320487 2.31823888 -10.15111683 4.27756841 -16 9 C-16.66 8.67 -17.32 8.34 -18 8 C-16.89764064 7.03958829 -15.79303376 6.08175593 -14.6875 5.125 C-13.76517578 4.32449219 -13.76517578 4.32449219 -12.82421875 3.5078125 C-8.63593291 0.04597453 -5.33076357 -0.69576185 0 0 Z " fill="#110428" transform="translate(702,583)"/>
<path d="M0 0 C4.9808184 1.53401631 8.28464734 4.50357462 12.125 7.875 C13.05505859 8.66970703 13.05505859 8.66970703 14.00390625 9.48046875 C17.04224848 12.11369869 19.76297717 14.61997281 22 18 C18.73245654 16.55346952 16.42630062 14.73585977 13.8125 12.3125 C9.91210511 8.76197442 5.86970598 5.51248022 1.65234375 2.34765625 C1.10707031 1.90292969 0.56179688 1.45820312 0 1 C0 0.67 0 0.34 0 0 Z " fill="#0D0424" transform="translate(563,585)"/>
<path d="M0 0 C1.52519276 0.08937803 3.04681929 0.24537146 4.5625 0.4375 C5.38878906 0.53933594 6.21507812 0.64117188 7.06640625 0.74609375 C7.70449219 0.82988281 8.34257813 0.91367188 9 1 C4.57116502 3.95255665 -0.11017304 4.47210044 -5.3671875 3.61328125 C-7.26157163 3.13799982 -9.134007 2.57676147 -11 2 C-7.58028525 1.05049135 -4.54667612 1 -1 1 C-0.67 0.67 -0.34 0.34 0 0 Z " fill="#7B26C8" transform="translate(855,1119)"/>
<path d="M0 0 C0.2475 0.5775 0.495 1.155 0.75 1.75 C1.91575822 4.12993597 1.91575822 4.12993597 4.125 5.9375 C6 8 6 8 6.25 10.75 C6.1675 11.4925 6.085 12.235 6 13 C4.68 13 3.36 13 2 13 C0.24252386 8.49646738 -0.19294408 4.82360189 0 0 Z " fill="#EF268E" transform="translate(332,308)"/>
<path d="M0 0 C0.33 0 0.66 0 1 0 C0.54229579 7.70205703 0.01784588 15.50325251 -6 21 C-4.55613874 13.78069368 -2.42211826 6.94889267 0 0 Z " fill="#0B0322" transform="translate(760,471)"/>
<path d="M0 0 C0.33 0 0.66 0 1 0 C1.144375 0.928125 1.28875 1.85625 1.4375 2.8125 C1.92100111 6.00725111 1.92100111 6.00725111 3 9 C2.68770276 10.33841672 2.35169068 11.67139075 2 13 C1.96213099 14.66623639 1.95372155 16.33397597 2 18 C1.01 18 0.02 18 -1 18 C-1.09706112 11.88514973 -0.77040851 6.06696699 0 0 Z " fill="#251F40" transform="translate(511,154)"/>
<path d="M0 0 C1.37562854 1.28965176 2.70766393 2.62689293 4 4 C4 4.66 4 5.32 4 6 C3.0925 6.020625 2.185 6.04125 1.25 6.0625 C-2.37723731 7.10881846 -2.63257149 7.45370668 -4.375 10.5625 C-4.91125 11.696875 -5.4475 12.83125 -6 14 C-6.33 13.34 -6.66 12.68 -7 12 C-5.56640625 9.1796875 -5.56640625 9.1796875 -3.5625 5.875 C-2.57443359 4.23144531 -2.57443359 4.23144531 -1.56640625 2.5546875 C-1.04949219 1.71164062 -0.53257812 0.86859375 0 0 Z " fill="#E83EA8" transform="translate(627,749)"/>
<path d="M0 0 C1.30092709 3.90278127 0.36437068 5.15452503 -1.25 8.875 C-1.68828125 9.90367187 -2.1265625 10.93234375 -2.578125 11.9921875 C-3.89901912 14.78638661 -5.35882119 17.3837679 -7 20 C-8 18 -8 18 -7.0625 14.875 C-6.711875 13.92625 -6.36125 12.9775 -6 12 C-5.34 12 -4.68 12 -4 12 C-3.8453125 10.4221875 -3.8453125 10.4221875 -3.6875 8.8125 C-3.02266585 5.12569246 -2.11433704 3.03361401 0 0 Z " fill="#0F0923" transform="translate(906,610)"/>
<path d="M0 0 C0.33 0 0.66 0 1 0 C1 3.63 1 7.26 1 11 C1.33 11 1.66 11 2 11 C1.67 13.31 1.34 15.62 1 18 C0.67 18 0.34 18 0 18 C-0.33 19.65 -0.66 21.3 -1 23 C-1.33 23 -1.66 23 -2 23 C-2.2700558 15.1683819 -1.23107719 7.72720775 0 0 Z " fill="#45415B" transform="translate(508,182)"/>
<path d="M0 0 C3.40458262 3.89095157 6.24177968 8.11365765 8 13 C7.67 13.66 7.34 14.32 7 15 C6.01 14.67 5.02 14.34 4 14 C3.67 11.69 3.34 9.38 3 7 C2.34 7 1.68 7 1 7 C0.67 4.69 0.34 2.38 0 0 Z " fill="#29253B" transform="translate(915,704)"/>
<path d="M0 0 C0 0.33 0 0.66 0 1 C-6.43028541 2.32388229 -12.4294834 3.24794402 -19 3 C-19 2.34 -19 1.68 -19 1 C-16.96044851 0.63384906 -14.91821752 0.28260721 -12.875 -0.0625 C-11.73804688 -0.25972656 -10.60109375 -0.45695312 -9.4296875 -0.66015625 C-6.0246108 -0.99756134 -3.32821869 -0.72330588 0 0 Z " fill="#252046" transform="translate(779,1153)"/>
<path d="M0 0 C0.66 0.33 1.32 0.66 2 1 C1.67 1.598125 1.34 2.19625 1 2.8125 C-0.20787988 5.05386471 -0.20787988 5.05386471 0 8 C-1.32 7.67 -2.64 7.34 -4 7 C-4.33 5.35 -4.66 3.7 -5 2 C-2.625 0.9375 -2.625 0.9375 0 0 Z " fill="#F4409E" transform="translate(894,907)"/>
<path d="M0 0 C0 0.66 0 1.32 0 2 C-2.88211302 2.96070434 -4.69850044 3.10581883 -7.6875 3.0625 C-8.89986328 3.04896484 -8.89986328 3.04896484 -10.13671875 3.03515625 C-11.05904297 3.01775391 -11.05904297 3.01775391 -12 3 C-12.33 2.34 -12.66 1.68 -13 1 C-11.39796533 0.63631108 -9.79325797 0.28438048 -8.1875 -0.0625 C-7.29417969 -0.25972656 -6.40085937 -0.45695312 -5.48046875 -0.66015625 C-3 -1 -3 -1 0 0 Z " fill="#180836" transform="translate(702,481)"/>
<path d="M0 0 C3.375 -0.5 3.375 -0.5 7 0 C9.66570809 2.59555787 10.825604 4.476812 12 8 C11.34 8 10.68 8 10 8 C8.61061923 6.03852126 7.2739589 4.03833424 6 2 C1.16743695 2.41421969 -0.82679218 4.46413986 -4 8 C-2.87548273 5.0280615 -1.77706209 2.66559313 0 0 Z " fill="#090220" transform="translate(624,611)"/>
<path d="M0 0 C0.66 0 1.32 0 2 0 C0.7542451 6.10419901 -1.69715653 9.54831603 -6 14 C-6.33 13.34 -6.66 12.68 -7 12 C-5.63671875 9.1796875 -5.63671875 9.1796875 -3.6875 5.875 C-3.05199219 4.77929688 -2.41648437 3.68359375 -1.76171875 2.5546875 C-1.18035156 1.71164062 -0.59898437 0.86859375 0 0 Z " fill="#0D0525" transform="translate(749,499)"/>
<path d="M0 0 C0.99 0.33 1.98 0.66 3 1 C-1 4.33333333 -5 7.66666667 -9 11 C-9.66 10.67 -10.32 10.34 -11 10 C-7.5103248 6.40768729 -4.03355127 2.98132051 0 0 Z " fill="#16122C" transform="translate(763,220)"/>
<path d="M0 0 C0.99 0.33 1.98 0.66 3 1 C1.75645114 2.29787866 0.5048736 3.58806759 -0.75 4.875 C-1.44609375 5.59429688 -2.1421875 6.31359375 -2.859375 7.0546875 C-4.85122217 8.86479679 -6.5427658 9.94848086 -9 11 C-7.59155282 7.78475695 -5.89655214 5.67816132 -3.375 3.25 C-2.74335937 2.63640625 -2.11171875 2.0228125 -1.4609375 1.390625 C-0.73777344 0.70226562 -0.73777344 0.70226562 0 0 Z " fill="#130532" transform="translate(646,609)"/>
<path d="M0 0 C0 4.31618166 -2.13270348 5.92789659 -5 9 C-5.66 9 -6.32 9 -7 9 C-7.66 10.32 -8.32 11.64 -9 13 C-9.99 12.67 -10.98 12.34 -12 12 C-8.04 8.04 -4.08 4.08 0 0 Z " fill="#1A1729" transform="translate(453,303)"/>
<path d="M0 0 C0.99 0 1.98 0 3 0 C2.67 3.3 2.34 6.6 2 10 C0.68 9.34 -0.64 8.68 -2 8 C-1.47731534 5.23723823 -0.89130413 2.6739124 0 0 Z " fill="#E4E3E8" transform="translate(501,220)"/>
<path d="M0 0 C0.66 0 1.32 0 2 0 C1.01 3.63 0.02 7.26 -1 11 C-1.66 11 -2.32 11 -3 11 C-3 11.66 -3 12.32 -3 13 C-3.66 13 -4.32 13 -5 13 C-4.54554036 11.58208592 -4.08625056 10.16571954 -3.625 8.75 C-3.24214844 7.56664062 -3.24214844 7.56664062 -2.8515625 6.359375 C-2.04826333 4.13372042 -1.10288338 2.09068328 0 0 Z " fill="#221E35" transform="translate(578,186)"/>
<path d="M0 0 C2.42130331 2.42130331 2.52840504 3.80111377 3.125 7.125 C3.29257812 8.03507813 3.46015625 8.94515625 3.6328125 9.8828125 C3.81457031 10.93082031 3.81457031 10.93082031 4 12 C3.34 12 2.68 12 2 12 C2 11.34 2 10.68 2 10 C1.34 10 0.68 10 0 10 C-0.38218767 8.34385343 -0.71395102 6.67542976 -1 5 C-0.67 4.67 -0.34 4.34 0 4 C-0.66 3.67 -1.32 3.34 -2 3 C-1 1 -1 1 0 0 Z " fill="#F4429D" transform="translate(327,887)"/>
<path d="M0 0 C0.66 0.99 1.32 1.98 2 3 C1.195625 3.763125 0.39125 4.52625 -0.4375 5.3125 C-3.16799024 7.79430898 -3.16799024 7.79430898 -4 11 C-4.99 11 -5.98 11 -7 11 C-5.5140084 6.40693504 -3.14985318 3.56430755 0 0 Z " fill="#201D37" transform="translate(342,694)"/>
<path d="M0 0 C0.66 0 1.32 0 2 0 C2.29341888 5.67276511 2.00559652 8.99067246 -1 14 C-2.15837573 10.52487282 -1.77265943 8.86329714 -1.0625 5.3125 C-0.86785156 4.31863281 -0.67320312 3.32476563 -0.47265625 2.30078125 C-0.31667969 1.54152344 -0.16070313 0.78226563 0 0 Z " fill="#070214" transform="translate(590,577)"/>
<path d="M0 0 C3.125 0.375 3.125 0.375 6 1 C5.360625 1.309375 4.72125 1.61875 4.0625 1.9375 C2.06389179 2.8345163 2.06389179 2.8345163 1 4 C0.92820036 5.51928038 0.91607993 7.04167482 0.9375 8.5625 C0.94652344 9.38878906 0.95554687 10.21507812 0.96484375 11.06640625 C0.97644531 11.70449219 0.98804688 12.34257812 1 13 C-1.35302007 10.64697993 -1.39392208 9.72564705 -1.75 6.5 C-1.84796875 5.7059375 -1.9459375 4.911875 -2.046875 4.09375 C-2 2 -2 2 0 0 Z " fill="#140F28" transform="translate(435,181)"/>
<path d="M0 0 C1.32 0 2.64 0 4 0 C4 1.32 4 2.64 4 4 C3.01 4.33 2.02 4.66 1 5 C0.67 7.97 0.34 10.94 0 14 C-0.33 14 -0.66 14 -1 14 C-1.02685938 11.85423363 -1.04633088 9.70837355 -1.0625 7.5625 C-1.07410156 6.36753906 -1.08570313 5.17257812 -1.09765625 3.94140625 C-1 1 -1 1 0 0 Z " fill="#F03E9B" transform="translate(1090,706)"/>
<path d="M0 0 C0.99 0.33 1.98 0.66 3 1 C2.25 3.9375 2.25 3.9375 1 7 C-1.125 7.875 -1.125 7.875 -3 8 C-3.36923077 3.44615385 -3.36923077 3.44615385 -1.5 1.1875 C-1.005 0.795625 -0.51 0.40375 0 0 Z " fill="#F1349F" transform="translate(153,682)"/>
<path d="M0 0 C0.33 0 0.66 0 1 0 C1.33 6.27 1.66 12.54 2 19 C1.34 19 0.68 19 0 19 C-1.09587955 14.75448144 -0.92865836 11.0407161 -0.5625 6.6875 C-0.46066406 5.43324219 -0.35882813 4.17898438 -0.25390625 2.88671875 C-0.17011719 1.93410156 -0.08632813 0.98148438 0 0 Z " fill="#130B2A" transform="translate(342,586)"/>
<path d="M0 0 C0.66 0 1.32 0 2 0 C3.18414294 3.55242882 2.69535532 4.69830562 1.5625 8.1875 C1.27503906 9.08855469 0.98757813 9.98960937 0.69140625 10.91796875 C0.46324219 11.60503906 0.23507812 12.29210937 0 13 C-0.33 13 -0.66 13 -1 13 C-1.0272415 11.58344207 -1.04650467 10.16672955 -1.0625 8.75 C-1.07410156 7.96109375 -1.08570313 7.1721875 -1.09765625 6.359375 C-1.00385306 4.09308998 -0.63241063 2.1711105 0 0 Z " fill="#0C091F" transform="translate(505,218)"/>
<path d="M0 0 C1 3 1 3 -0.6875 6.625 C-1.69921875 8.4765625 -1.69921875 8.4765625 -3 10 C-4.32 10.33 -5.64 10.66 -7 11 C-4.69 7.37 -2.38 3.74 0 0 Z " fill="#25213B" transform="translate(705,172)"/>
<path d="M0 0 C8.57142857 1 8.57142857 1 12 2 C12 2.66 12 3.32 12 4 C10.56208484 3.85831863 9.1246763 3.71148957 7.6875 3.5625 C6.88699219 3.48128906 6.08648437 3.40007812 5.26171875 3.31640625 C3 3 3 3 0 2 C0 1.34 0 0.68 0 0 Z " fill="#312C52" transform="translate(411,1138)"/>
<path d="M0 0 C0 0.66 0 1.32 0 2 C-3.37097383 3.49821059 -5.20442119 4 -9 4 C-9.33 4.99 -9.66 5.98 -10 7 C-10.33 5.68 -10.66 4.36 -11 3 C-9.54293274 2.49632243 -8.08429904 1.99717444 -6.625 1.5 C-5.81289063 1.2215625 -5.00078125 0.943125 -4.1640625 0.65625 C-2 0 -2 0 0 0 Z " fill="#F4419B" transform="translate(298,917)"/>
<path d="M0 0 C0.66 0 1.32 0 2 0 C2.375 2.75 2.375 2.75 2 6 C-1 8.375 -1 8.375 -4 10 C-2.8905928 6.51329166 -1.73662334 3.22515763 0 0 Z " fill="#7E2ACF" transform="translate(639,814)"/>
<path d="M0 0 C0.33 0.66 0.66 1.32 1 2 C-0.0828125 2.804375 -0.0828125 2.804375 -1.1875 3.625 C-4.247842 6.2092888 -6.51220011 8.87248014 -9 12 C-9.33 11.01 -9.66 10.02 -10 9 C-8.71142987 7.68445979 -7.41904109 6.37265903 -6.125 5.0625 C-5.04605469 3.96615234 -5.04605469 3.96615234 -3.9453125 2.84765625 C-2 1 -2 1 0 0 Z " fill="#120E29" transform="translate(353,684)"/>
<path d="M0 0 C1.65 0 3.3 0 5 0 C5.33 0.99 5.66 1.98 6 3 C4.68 4.32 3.36 5.64 2 7 C1.34 4.69 0.68 2.38 0 0 Z " fill="#E3E0E8" transform="translate(799,903)"/>
<path d="M0 0 C1.15469014 3.94157386 0.82245557 6.96249082 0 11 C-0.66 11.66 -1.32 12.32 -2 13 C-3.18771723 9.57056481 -2.80226223 7.62215325 -1.5625 4.25 C-1.27503906 3.45078125 -0.98757813 2.6515625 -0.69140625 1.828125 C-0.46324219 1.22484375 -0.23507812 0.6215625 0 0 Z " fill="#110D2A" transform="translate(395,478)"/>
<path d="M0 0 C3.78080393 1.26026798 4.77295425 2.93546534 7.1875 6.0625 C7.90292969 6.98160156 8.61835937 7.90070313 9.35546875 8.84765625 C10.16951172 9.91306641 10.16951172 9.91306641 11 11 C8 11 8 11 6.2109375 9.35546875 C5.60507812 8.64003906 4.99921875 7.92460937 4.375 7.1875 C3.76398437 6.47980469 3.15296875 5.77210938 2.5234375 5.04296875 C1 3 1 3 0 0 Z " fill="#1E1A33" transform="translate(808,311)"/>
<path d="M0 0 C0.66 0.33 1.32 0.66 2 1 C-0.20979308 3.81939117 -2.40062046 6.53058944 -5 9 C-5.99 8.67 -6.98 8.34 -8 8 C-5.58443874 4.80800833 -3.31996462 2.25283313 0 0 Z " fill="#FDE3F3" transform="translate(949,296)"/>
<path d="M0 0 C0.66 0.33 1.32 0.66 2 1 C-0.64 3.64 -3.28 6.28 -6 9 C-6.33 8.01 -6.66 7.02 -7 6 C-4.69 4.02 -2.38 2.04 0 0 Z " fill="#120633" transform="translate(501,1071)"/>
<path d="M0 0 C2.2477975 2.05233685 3.0022242 3.00667261 4 6 C0.85375007 6.26218749 -0.61837017 6.24754367 -3.3125 4.5 C-3.869375 4.005 -4.42625 3.51 -5 3 C-3.35 3 -1.7 3 0 3 C0 2.01 0 1.02 0 0 Z " fill="#7E30C7" transform="translate(596,781)"/>
<path d="M0 0 C0.556875 0.70125 1.11375 1.4025 1.6875 2.125 C4.09124732 5.11344261 6.53810432 8.05940238 9 11 C8.01 11.495 8.01 11.495 7 12 C7 11.34 7 10.68 7 10 C6.34 10 5.68 10 5 10 C0 4.76190476 0 4.76190476 0 0 Z " fill="#1F1A36" transform="translate(896,680)"/>
<path d="M0 0 C0.66 0.33 1.32 0.66 2 1 C2.042721 2.66611905 2.04063832 4.33382885 2 6 C1.67 6.33 1.34 6.66 1 7 C0.76924918 8.34747084 0.58846937 9.70377565 0.4375 11.0625 C0.293125 12.361875 0.14875 13.66125 0 15 C-0.33 15 -0.66 15 -1 15 C-1.02715383 13.25008666 -1.04646551 11.50005055 -1.0625 9.75 C-1.07410156 8.77546875 -1.08570313 7.8009375 -1.09765625 6.796875 C-1.01195577 4.34241322 -0.70706066 2.33831086 0 0 Z " fill="#09071D" transform="translate(402,403)"/>
<path d="M0 0 C0.66 0.33 1.32 0.66 2 1 C0.88037801 2.64949657 -0.24586845 4.29449838 -1.375 5.9375 C-2.00148438 6.85402344 -2.62796875 7.77054688 -3.2734375 8.71484375 C-5 11 -5 11 -7 12 C-5.44298069 7.32894208 -2.91552627 3.91294315 0 0 Z " fill="#D94CA6" transform="translate(708,221)"/>
<path d="M0 0 C2.4294516 3.6441774 2.16179575 5.71241272 2 10 C1.01 10.495 1.01 10.495 0 11 C-1.28571429 3.57142857 -1.28571429 3.57142857 0 0 Z " fill="#0E0927" transform="translate(514,137)"/>
<path d="M0 0 C2.9375 0.75 2.9375 0.75 4.9375 2.75 C0.93549622 4.35080151 -2.10806236 3.04279692 -6.0625 1.75 C-3.0625 -0.25 -3.0625 -0.25 0 0 Z " fill="#F2449A" transform="translate(900.0625,914.25)"/>
<path d="M0 0 C0.33 0 0.66 0 1 0 C1.33 3.3 1.66 6.6 2 10 C0.02 10.99 0.02 10.99 -2 12 C-1.34 8.04 -0.68 4.08 0 0 Z " fill="#C7C3CF" transform="translate(927,755)"/>
<path d="M0 0 C0.33 1.98 0.66 3.96 1 6 C0.34 6 -0.32 6 -1 6 C-1 4.68 -1 3.36 -1 2 C-1.66 2 -2.32 2 -3 2 C-3 2.66 -3 3.32 -3 4 C-4.65 3.67 -6.3 3.34 -8 3 C-5.22569089 1.15046059 -3.35957737 0 0 0 Z " fill="#6E28B6" transform="translate(716,751)"/>
<path d="M0 0 C3.78717347 1.48781815 5.77407001 3.61988409 8 7 C7.67 7.99 7.34 8.98 7 10 C5.82739389 8.71372289 4.6620717 7.42080217 3.5 6.125 C2.8503125 5.40570312 2.200625 4.68640625 1.53125 3.9453125 C0 2 0 2 0 0 Z " fill="#15102A" transform="translate(905,693)"/>
<path d="M0 0 C0.75 1.75 0.75 1.75 1 4 C-0.8125 6.25 -0.8125 6.25 -3 8 C-3.66 8 -4.32 8 -5 8 C-4.45773019 4.20411134 -2.79872437 2.52788007 0 0 Z " fill="#110F22" transform="translate(365,529)"/>
<path d="M0 0 C0.66 0.33 1.32 0.66 2 1 C2.08131463 2.43655854 2.13933559 3.8744483 2.1875 5.3125 C2.22230469 6.11300781 2.25710938 6.91351562 2.29296875 7.73828125 C1.93801608 10.47851584 1.10633718 11.29171079 -1 13 C-1.33 12.34 -1.66 11.68 -2 11 C-1.690625 10.443125 -1.38125 9.88625 -1.0625 9.3125 C0.3861914 6.15946578 0.13174333 3.42532653 0 0 Z " fill="#862FD3" transform="translate(657,775)"/>
<path d="M0 0 C1.45606519 4.52092968 0.27032841 7.51648796 -1 12 C-1.99 12 -2.98 12 -4 12 C-2.66666667 8 -1.33333333 4 0 0 Z " fill="#27233F" transform="translate(596,143)"/>
<path d="M0 0 C0 0.66 0 1.32 0 2 C0.99 2.33 1.98 2.66 3 3 C1.741875 2.87625 0.48375 2.7525 -0.8125 2.625 C-1.87404297 2.52058594 -1.87404297 2.52058594 -2.95703125 2.4140625 C-5 2 -5 2 -8 0 C-4.71023192 -1.09658936 -3.28696233 -0.79953138 0 0 Z " fill="#7926C6" transform="translate(400,1120)"/>
<path d="M0 0 C0.66 0 1.32 0 2 0 C1.7452486 1.31571603 1.47065859 2.62760376 1.1875 3.9375 C1.03667969 4.66839844 0.88585937 5.39929687 0.73046875 6.15234375 C0.48941406 6.76207031 0.24835938 7.37179687 0 8 C-0.99 8.33 -1.98 8.66 -3 9 C-2.01 6.03 -1.02 3.06 0 0 Z " fill="#221945" transform="translate(404,1034)"/>
<path d="M0 0 C0.66 0 1.32 0 2 0 C0.7508258 3.45925163 -0.67527795 6.14693203 -3 9 C-3.33 8.01 -3.66 7.02 -4 6 C-2.1875 2.8125 -2.1875 2.8125 0 0 Z " fill="#E6E3EC" transform="translate(367,785)"/>
<path d="M0 0 C0.66 0 1.32 0 2 0 C0.90931332 3.77545388 0.0916909 6.47043472 -3 9 C-2.5020163 5.26512223 -2.12508244 3.18762365 0 0 Z " fill="#0F0925" transform="translate(895,632)"/>
<path d="M0 0 C0.66 0.33 1.32 0.66 2 1 C1.67 1.99 1.34 2.98 1 4 C0.34 4 -0.32 4 -1 4 C-1.66 5.65 -2.32 7.3 -3 9 C-3.66 8.01 -4.32 7.02 -5 6 C-3.35 4.02 -1.7 2.04 0 0 Z " fill="#0F0629" transform="translate(740,514)"/>
<path d="M0 0 C1 4 1 4 0.3125 6.1875 C-1 8 -1 8 -5 9 C-3.35 6.03 -1.7 3.06 0 0 Z " fill="#211D3A" transform="translate(715,157)"/>
<path d="M0 0 C0.99 0 1.98 0 3 0 C1.84826645 2.46800047 0.95216435 4.04783565 -1 6 C-1.99 5.67 -2.98 5.34 -4 5 C-2.1875 2.5 -2.1875 2.5 0 0 Z " fill="#0D0823" transform="translate(901,804)"/>
<path d="M0 0 C0.99 0.33 1.98 0.66 3 1 C2.34 2.32 1.68 3.64 1 5 C-0.32 5 -1.64 5 -3 5 C-1.125 1.125 -1.125 1.125 0 0 Z " fill="#F4389C" transform="translate(970,791)"/>
<path d="M0 0 C3.37462715 0.54723683 5.08235 1.0549 8 3 C8 3.66 8 4.32 8 5 C2.25 3.125 2.25 3.125 0 2 C0 1.34 0 0.68 0 0 Z " fill="#F23E98" transform="translate(160,746)"/>
<path d="M0 0 C-0.33 0.99 -0.66 1.98 -1 3 C-7.625 3.25 -7.625 3.25 -11 1 C-3.375 0 -3.375 0 0 0 Z " fill="#5A249F" transform="translate(660,578)"/>
<path d="M0 0 C3 3 3 3 3.1875 6.1875 C3.0946875 7.5796875 3.0946875 7.5796875 3 9 C2.34 9 1.68 9 1 9 C0.67 6.03 0.34 3.06 0 0 Z " fill="#110D20" transform="translate(904,557)"/>
<path d="M0 0 C0 0.99 0 1.98 0 3 C-1.53125 4.38671875 -1.53125 4.38671875 -3.5 5.6875 C-4.47453125 6.34298828 -4.47453125 6.34298828 -5.46875 7.01171875 C-5.9740625 7.33785156 -6.479375 7.66398437 -7 8 C-7 7.01 -7 6.02 -7 5 C-5.46875 3.61328125 -5.46875 3.61328125 -3.5 2.3125 C-2.8503125 1.87550781 -2.200625 1.43851562 -1.53125 0.98828125 C-1.0259375 0.66214844 -0.520625 0.33601563 0 0 Z " fill="#100327" transform="translate(586,380)"/>
<path d="M0 0 C0.66 0.33 1.32 0.66 2 1 C-1.96 4.465 -1.96 4.465 -6 8 C-6.66 7.67 -7.32 7.34 -8 7 C-5.36 4.69 -2.72 2.38 0 0 Z " fill="#0E0425" transform="translate(598,370)"/>
<path d="M0 0 C0.66 0.33 1.32 0.66 2 1 C-1.12621626 4.39417765 -3.56541027 6.6062718 -8 8 C-5.33333333 5.33333333 -2.66666667 2.66666667 0 0 Z " fill="#FCD3EB" transform="translate(356,283)"/>
<path d="M0 0 C3.91402949 1.26941497 5.79072873 2.51167694 8 6 C4.06830895 6 2.83572772 4.60580385 0 2 C0 1.34 0 0.68 0 0 Z " fill="#F4389A" transform="translate(939,274)"/>
<path d="M0 0 C0.33 0 0.66 0 1 0 C1.33 2.64 1.66 5.28 2 8 C1.34 8 0.68 8 0 8 C-0.33 9.32 -0.66 10.64 -1 12 C-1.14285714 3.42857143 -1.14285714 3.42857143 0 0 Z " fill="#3F3D52" transform="translate(505,210)"/>
<path d="M0 0 C0.66 0 1.32 0 2 0 C2.66 2.31 3.32 4.62 4 7 C3.34 7.66 2.68 8.32 2 9 C0.50178941 5.62902617 0 3.79557881 0 0 Z " fill="#231D3D" transform="translate(656,138)"/>
<path d="M0 0 C2.64 0.33 5.28 0.66 8 1 C4.5980513 3.09350689 1.94727588 3.17942163 -2 3 C-1.34 2.67 -0.68 2.34 0 2 C0 1.34 0 0.68 0 0 Z " fill="#4B4265" transform="translate(743,1156)"/>
<path d="M0 0 C2.97 0.33 5.94 0.66 9 1 C9.33 1.99 9.66 2.98 10 4 C6.7 3.01 3.4 2.02 0 1 C0 0.67 0 0.34 0 0 Z " fill="#11052F" transform="translate(829,1118)"/>
<path d="M0 0 C1.65 0.33 3.3 0.66 5 1 C4.67 2.32 4.34 3.64 4 5 C3.67 4.01 3.34 3.02 3 2 C1.68 2.99 0.36 3.98 -1 5 C-0.67 3.35 -0.34 1.7 0 0 Z " fill="#F4409E" transform="translate(321,873)"/>
<path d="M0 0 C0.33 0 0.66 0 1 0 C0.67 2.97 0.34 5.94 0 9 C-0.66 8.67 -1.32 8.34 -2 8 C-1.125 1.125 -1.125 1.125 0 0 Z " fill="#7F2AD0" transform="translate(621,828)"/>
<path d="M0 0 C1 3 1 3 0.22265625 4.82421875 C-0.8515625 6.54947917 -1.92578125 8.27473958 -3 10 C-4 8 -4 8 -3.0625 4.875 C-2.5365625 3.451875 -2.5365625 3.451875 -2 2 C-1.34 2 -0.68 2 0 2 C0 1.34 0 0.68 0 0 Z " fill="#0F0A21" transform="translate(919,779)"/>
<path d="M0 0 C0.99 0 1.98 0 3 0 C2.34 1.98 1.68 3.96 1 6 C0.01 5.67 -0.98 5.34 -2 5 C-1.125 1.125 -1.125 1.125 0 0 Z " fill="#F43B9E" transform="translate(275,755)"/>
<path d="M0 0 C0.66 0.66 1.32 1.32 2 2 C1.625 5.125 1.625 5.125 1 8 C0.01 8 -0.98 8 -2 8 C-1.34 5.36 -0.68 2.72 0 0 Z " fill="#F23C99" transform="translate(1018,414)"/>
<path d="M0 0 C4.43090471 1.20842856 6.98112756 2.51668565 10 6 C5.16743695 5.58578031 3.17320782 3.53586014 0 0 Z " fill="#0F052A" transform="translate(680,385)"/>
<path d="M0 0 C0.66 0 1.32 0 2 0 C3.0625 1.8125 3.0625 1.8125 4 4 C3.67 4.99 3.34 5.98 3 7 C2.67 6.34 2.34 5.68 2 5 C1.01 5 0.02 5 -1 5 C-0.67 3.35 -0.34 1.7 0 0 Z " fill="#ED43AA" transform="translate(627,174)"/>
<path d="M0 0 C0.33 0 0.66 0 1 0 C1 2.64 1 5.28 1 8 C-0.32 8.33 -1.64 8.66 -3 9 C-3 8.34 -3 7.68 -3 7 C-2.34 7 -1.68 7 -1 7 C-0.67 4.69 -0.34 2.38 0 0 Z " fill="#F01A8A" transform="translate(930,953)"/>
<path d="M0 0 C0.99 0 1.98 0 3 0 C3.625 2.875 3.625 2.875 4 6 C3.34 6.66 2.68 7.32 2 8 C0.74335022 5.09399739 0 3.20395416 0 0 Z " fill="#F43B9B" transform="translate(931,877)"/>
<path d="M0 0 C0.66 0 1.32 0 2 0 C1.25 6.75 1.25 6.75 -1 9 C-0.67 6.03 -0.34 3.06 0 0 Z " fill="#220940" transform="translate(601,859)"/>
<path d="M0 0 C0.99 0.33 1.98 0.66 3 1 C3 1.66 3 2.32 3 3 C3.99 3 4.98 3 6 3 C5.67 4.32 5.34 5.64 5 7 C4.34 7 3.68 7 3 7 C0 2.61538462 0 2.61538462 0 0 Z " fill="#EC4AAF" transform="translate(624,672)"/>
<path d="M0 0 C0.6875 1.6875 0.6875 1.6875 1 4 C-1.26153846 8.63076923 -1.26153846 8.63076923 -4 10 C-2.8905928 6.51329166 -1.73662334 3.22515763 0 0 Z " fill="#0B0326" transform="translate(612,629)"/>
<path d="M0 0 C3.93673644 1.31224548 6.22719294 2.91910327 9 6 C5.32579134 5.69381595 4.21864487 5.24228216 1.6875 2.4375 C1.130625 1.633125 0.57375 0.82875 0 0 Z " fill="#17132A" transform="translate(487,219)"/>
<path d="M0 0 C0.66 0 1.32 0 2 0 C2.66 2.31 3.32 4.62 4 7 C3.01 7 2.02 7 1 7 C0.67 4.69 0.34 2.38 0 0 Z " fill="#201B33" transform="translate(670,172)"/>
</svg>
