<svg viewBox="0 0 100 100" xmlns="http://www.w3.org/2000/svg">
  <!-- Crown -->
  <path d="M 20 70 L 30 40 L 50 55 L 70 40 L 80 70 Z" fill="#ec4899" stroke="#a855f7" stroke-width="2" stroke-linejoin="round"/>
  <!-- Crown band -->
  <rect x="15" y="70" width="70" height="15" rx="3" fill="#ec4899" stroke="#a855f7" stroke-width="2"/>
  <!-- Center jewel -->
  <circle cx="50" cy="55" r="6" fill="#0ea5e9" stroke="#ec4899" stroke-width="1"/>
  <!-- Side jewels -->
  <circle cx="30" cy="40" r="4" fill="#fbbf24"/>
  <circle cx="70" cy="40" r="4" fill="#fbbf24"/>
  <!-- Sparkle stars -->
  <g fill="#fbbf24">
    <path d="M 25 20 L 27 26 L 33 26 L 28 30 L 30 36 L 25 32 L 20 36 L 22 30 L 17 26 L 23 26 Z"/>
    <path d="M 75 20 L 77 26 L 83 26 L 78 30 L 80 36 L 75 32 L 70 36 L 72 30 L 67 26 L 73 26 Z"/>
  </g>
</svg>
