<svg xmlns="http://www.w3.org/2000/svg" width="316" height="304" viewBox="0 0 316 304">
<g>
<path d="M 85.61 301.25 L 86.16 304.00 L 81.93 304.00 C82.78,303.56 82.47,300.81 80.92,286.73 C80.70,284.75 80.46,282.54 80.19,280.08 C79.26,271.60 78.05,264.52 77.50,264.35 C76.95,264.17 75.85,264.44 75.06,264.94 C73.82,265.73 73.86,268.16 75.40,283.17 C76.37,292.70 77.38,301.29 77.65,302.25 C77.93,303.27 79.10,304.00 80.44,304.00 L 71.32 304.00 C73.99,304.00 74.20,303.75 73.70,301.23 C73.39,299.70 72.59,291.86 71.92,283.80 C71.25,275.74 70.38,268.61 69.98,267.97 C69.43,267.07 68.72,267.08 67.01,268.00 C65.07,269.04 64.83,269.77 65.30,273.35 C65.60,275.63 66.41,283.46 67.11,290.75 L 68.38 304.00 L 56.22 304.00 L 55.65 300.75 C55.34,298.96 54.78,292.66 54.41,286.75 C53.98,279.93 53.32,276.00 52.61,276.00 C50.78,276.00 39.93,281.42 33.51,285.53 C26.98,289.71 18.97,296.83 15.84,301.22 L 13.86 304.00 L 4.92 304.00 C9.43,304.00 10.01,303.72 11.93,300.61 C15.05,295.56 27.27,284.43 33.15,281.27 C35.98,279.74 41.27,277.00 44.90,275.17 C48.53,273.33 52.40,271.00 53.50,270.00 C56.25,267.47 76.79,259.80 78.96,260.49 C80.64,261.02 112.29,250.71 114.60,248.87 C115.24,248.37 115.99,242.18 116.39,234.03 L 117.08 220.07 L 111.41 211.78 C108.28,207.23 104.24,200.23 102.42,196.24 L 99.11 188.98 L 96.60 191.49 C88.77,199.32 78.04,187.89 82.24,176.21 L 83.79 171.89 L 80.43 166.89 C76.32,160.79 75.01,156.34 75.01,148.50 C75.00,140.45 77.26,136.08 82.77,133.50 C86.45,131.78 86.97,131.15 86.54,129.00 C86.26,127.62 85.74,122.00 85.38,116.50 C84.96,110.19 84.08,105.21 82.98,103.00 C78.89,94.75 79.72,87.53 85.49,81.15 C87.93,78.44 88.61,77.00 87.95,75.95 C86.29,73.33 86.88,64.15 88.97,60.06 C92.58,52.98 98.49,49.33 107.40,48.68 C109.77,48.51 110.54,47.80 111.57,44.83 C112.26,42.83 113.61,40.00 114.57,38.54 C116.63,35.39 122.85,32.00 126.55,32.00 C128.00,32.00 130.33,31.10 131.73,30.00 C134.75,27.63 141.58,27.32 144.58,29.42 C146.40,30.70 147.05,30.54 150.95,27.92 C154.59,25.47 156.31,25.00 161.50,25.00 C168.62,25.00 172.87,27.23 176.82,33.02 C178.27,35.15 179.83,36.36 180.84,36.14 C194.04,33.32 198.38,35.67 206.20,49.90 C207.61,52.45 208.53,53.00 211.41,53.00 C220.00,53.00 224.49,58.55 223.79,68.29 C223.38,73.94 223.55,74.65 225.79,76.41 C231.76,81.10 233.79,93.46 229.98,101.86 C228.65,104.78 227.99,108.41 227.98,112.86 C227.98,116.51 227.34,122.19 226.56,125.47 C224.99,132.18 225.18,133.00 228.34,133.00 C239.15,133.00 241.50,154.72 232.09,167.72 C229.18,171.73 229.17,171.79 230.74,176.14 C232.82,181.92 231.79,187.36 227.88,191.27 C225.34,193.81 224.38,194.16 221.31,193.66 C219.33,193.34 216.73,192.16 215.54,191.03 L 213.36 188.99 L 210.69 195.49 C209.22,199.06 205.54,205.75 202.51,210.35 L 197.00 218.72 L 197.00 247.95 L 199.75 249.36 C205.72,252.43 231.84,261.00 235.23,261.00 C239.75,261.00 256.97,267.43 259.06,269.90 C259.91,270.91 261.57,272.05 262.74,272.42 C263.92,272.79 269.07,275.37 274.19,278.15 C284.87,283.95 294.93,292.12 300.00,299.11 L 303.50 303.94 L 316.00 304.00 L 299.14 304.00 L 297.11 301.15 C292.39,294.53 282.20,286.40 272.17,281.25 C266.54,278.36 261.34,276.00 260.61,276.00 C259.64,276.00 259.10,278.76 258.60,286.25 C258.22,291.89 257.65,298.19 257.33,300.25 L 256.74 304.00 L 244.57 304.00 L 245.81 290.25 C246.49,282.69 247.31,274.68 247.63,272.46 C248.16,268.77 247.97,268.31 245.47,267.17 C243.97,266.49 242.58,266.09 242.38,266.29 C242.17,266.49 241.34,273.37 240.52,281.58 C239.70,289.79 238.84,298.19 238.61,300.25 C238.20,303.89 238.29,304.00 241.38,304.00 L 235.71 304.00 L 236.83 292.75 C239.39,267.05 239.44,265.11 237.54,264.38 C236.58,264.01 235.48,264.22 235.09,264.85 C234.70,265.48 233.59,273.76 232.62,283.25 C231.65,292.74 230.63,301.29 230.36,302.25 C229.97,303.63 230.48,304.00 232.79,304.00 L 226.68 304.00 L 228.38 289.25 C229.31,281.14 230.33,272.37 230.66,269.77 C230.72,269.26 230.80,268.80 230.87,268.40 C231.03,267.48 231.15,266.80 230.97,266.21 C230.41,264.25 226.73,263.19 211.16,257.52 C203.27,254.64 195.96,251.55 194.91,250.65 C193.23,249.21 193.00,247.59 193.00,237.01 C193.00,230.40 192.81,225.00 192.58,225.00 C192.35,225.00 189.44,227.72 186.13,231.03 C175.68,241.48 162.21,245.59 148.14,242.62 C139.18,240.72 133.16,237.33 126.29,230.32 C123.43,227.39 120.84,225.00 120.54,225.00 C120.24,225.00 120.00,230.31 120.00,236.81 C120.00,244.68 119.58,249.19 118.75,250.32 C118.06,251.26 109.85,254.75 100.50,258.08 C91.15,261.41 83.14,264.49 82.71,264.91 C81.98,265.62 84.31,294.73 85.61,301.25 ZM 116.79 213.36 C122.22,220.43 122.53,220.14 124.06,206.41 C124.66,201.00 125.58,195.79 126.09,194.83 C128.56,190.23 140.10,184.15 148.33,183.12 L 153.27 182.50 L 149.40 180.00 C145.74,177.64 143.62,174.00 145.90,174.00 C146.47,174.00 148.95,175.42 151.41,177.15 C155.50,180.03 156.13,180.19 158.86,179.06 C160.51,178.37 162.63,176.96 163.58,175.91 C164.53,174.86 165.92,174.00 166.65,174.00 C168.97,174.00 168.13,176.71 165.00,179.35 C161.24,182.51 161.25,183.00 165.07,183.00 C169.31,183.00 182.16,189.12 184.71,192.36 C187.07,195.36 188.60,201.33 189.52,211.24 C189.87,214.95 190.55,218.22 191.04,218.53 C193.39,219.98 206.17,198.40 210.32,185.97 C215.08,171.68 218.48,141.81 216.99,127.30 C215.13,109.19 214.55,107.00 211.68,107.00 C209.73,106.99 207.09,105.61 201.74,101.76 C200.22,100.68 199.56,100.94 197.03,103.65 C195.41,105.38 192.01,107.59 189.48,108.56 C185.32,110.15 184.44,110.18 180.20,108.86 C174.54,107.10 173.95,105.18 178.27,102.48 C180.05,101.38 181.64,99.46 181.82,98.23 C182.10,96.26 181.70,96.00 178.41,96.00 C175.27,96.00 174.03,95.29 170.55,91.50 C165.30,85.78 161.83,85.18 165.53,90.64 C166.89,92.64 168.00,95.36 168.00,96.67 C168.00,100.94 165.31,105.64 161.54,107.98 C158.52,109.84 156.95,110.15 152.95,109.68 C150.26,109.36 147.14,108.61 146.03,108.02 C143.84,106.84 143.24,104.00 145.19,104.00 C147.24,104.00 151.00,99.75 151.00,97.43 C151.00,94.90 149.29,94.00 144.47,94.00 C140.62,94.00 138.55,96.28 136.91,102.36 C134.93,109.69 128.92,112.74 122.38,109.76 C120.18,108.76 119.58,108.77 119.22,109.83 C117.11,116.16 108.69,118.79 102.40,115.07 C100.37,113.87 98.34,113.26 97.90,113.70 C97.46,114.14 96.57,118.78 95.93,124.00 C93.06,147.29 99.39,184.52 109.20,202.00 C110.90,205.02 114.31,210.14 116.79,213.36 ZM 90.07 127.04 L 91.33 131.50 L 92.52 123.00 C93.98,112.53 96.59,103.30 98.25,102.75 C99.17,102.44 99.01,101.42 97.60,98.82 C94.46,92.98 97.24,87.49 104.72,84.78 C107.15,83.90 107.87,83.16 107.36,82.04 C103.36,73.08 109.76,62.15 118.42,63.16 C122.20,63.60 123.13,66.00 119.53,66.00 C118.09,66.00 115.59,66.68 113.98,67.51 C108.61,70.28 107.63,74.98 111.08,81.41 C113.31,85.58 112.68,86.95 108.50,86.99 C107.40,87.00 105.04,87.90 103.25,88.99 C99.37,91.35 98.81,95.81 102.00,99.00 C104.53,101.53 104.52,101.59 101.39,105.31 L 98.78 108.41 L 101.45 110.71 C106.98,115.47 114.98,112.90 116.53,105.86 C117.27,102.48 118.30,102.31 121.73,105.00 C124.86,107.47 129.17,107.58 131.26,105.25 C132.12,104.29 133.16,101.71 133.57,99.52 C134.69,93.51 138.72,90.00 144.50,90.00 C148.31,90.00 149.68,90.53 152.08,92.92 C155.82,96.67 155.77,99.47 151.89,103.10 L 148.79 106.00 L 153.47 106.00 C157.31,106.00 158.68,105.48 161.08,103.08 C164.77,99.39 164.92,95.24 161.50,91.18 C158.55,87.67 158.49,87.22 160.65,84.83 C163.25,81.96 165.69,82.63 171.10,87.69 C174.85,91.20 177.14,92.52 180.20,92.94 C185.95,93.73 187.09,95.96 184.33,101.02 L 182.17 105.00 L 185.33 104.99 C195.62,104.94 201.86,91.80 195.04,84.54 C192.77,82.12 193.55,80.50 196.45,81.62 C198.87,82.55 201.00,87.37 201.00,91.93 C201.00,97.89 205.14,102.19 211.59,102.94 L 216.46 103.50 L 217.68 109.00 C218.35,112.03 219.21,117.99 219.58,122.25 C219.95,126.51 220.59,130.00 220.99,130.00 C222.20,130.00 224.00,119.13 224.00,111.79 C224.00,106.68 224.56,103.84 226.18,100.71 C230.97,91.50 227.62,79.68 219.47,76.99 L 215.85 75.79 L 217.92 73.58 C219.43,71.98 220.00,70.05 220.00,66.61 C220.00,62.68 219.49,61.34 217.08,58.92 C214.70,56.55 213.30,56.00 209.59,56.00 C205.03,56.00 205.03,56.00 202.08,50.16 C196.41,38.92 189.60,35.61 181.08,39.96 C178.97,41.03 176.95,41.61 176.58,41.24 C176.21,40.87 175.06,38.65 174.02,36.31 C171.68,31.01 167.03,28.01 161.18,28.00 C156.19,28.00 153.72,29.09 149.37,33.20 L 146.25 36.15 L 143.67 33.58 C139.97,29.88 133.00,30.21 133.00,34.09 C133.00,35.71 132.43,35.89 128.75,35.43 C125.55,35.02 123.71,35.39 121.29,36.91 C117.67,39.18 114.00,45.57 114.00,49.59 C114.00,52.08 113.76,52.22 110.54,51.70 C105.53,50.89 100.42,52.63 95.94,56.68 C90.66,61.44 89.26,66.23 91.00,73.50 L 92.32 78.99 L 88.69 82.51 C86.70,84.44 84.53,87.85 83.86,90.07 C82.78,93.68 82.90,94.67 84.97,99.31 C86.48,102.70 87.55,107.64 88.05,113.54 C88.47,118.51 89.38,124.59 90.07,127.04 ZM 146.00 237.55 C154.49,239.94 169.00,238.83 169.00,235.80 C169.00,235.24 169.70,235.06 170.56,235.39 C175.28,237.20 188.45,224.96 186.02,221.03 C185.56,220.28 184.90,216.03 184.55,211.59 C183.67,200.23 182.23,195.20 179.63,194.41 C178.46,194.05 176.71,193.07 175.75,192.23 C174.65,191.26 174.00,191.12 174.00,191.85 C174.00,192.48 174.41,193.00 174.92,193.00 C176.35,193.00 181.33,198.66 181.68,200.68 C183.45,210.98 183.27,213.53 180.50,216.82 C176.96,221.02 173.05,223.00 168.27,223.00 C164.22,223.00 160.00,220.75 160.00,218.60 C160.00,217.89 159.17,216.35 158.16,215.19 C156.77,213.58 156.05,213.35 155.16,214.24 C154.52,214.88 154.00,215.88 154.00,216.46 C154.00,218.40 148.95,223.00 146.71,223.11 C139.77,223.46 135.66,221.76 131.51,216.83 C128.65,213.43 128.57,212.09 130.37,198.50 L 130.90 194.50 L 129.59 198.00 C128.88,199.93 127.96,205.77 127.55,211.00 C127.15,216.23 126.40,221.01 125.88,221.64 C125.01,222.70 126.58,225.15 132.04,231.21 C133.78,233.15 139.36,235.68 146.00,237.55 ZM 140.50 218.83 C143.32,220.39 145.60,220.26 147.43,218.43 C149.20,216.66 149.51,213.43 148.00,212.50 C147.45,212.16 147.00,211.23 147.00,210.44 C147.00,209.29 148.91,209.00 156.61,209.00 C165.37,209.00 166.15,209.15 165.48,210.75 C163.87,214.59 163.89,216.75 165.58,218.43 C169.61,222.47 179.01,216.38 178.99,209.73 C178.99,207.96 178.52,204.81 177.95,202.75 C176.83,198.73 174.83,197.94 172.06,200.44 C169.85,202.44 157.96,204.18 151.70,203.42 C148.84,203.08 144.52,201.87 142.09,200.73 L 137.69 198.67 L 135.84 200.95 C134.58,202.51 134.00,204.86 134.00,208.44 C134.00,213.80 135.37,216.00 140.50,218.83 ZM 92.24 173.72 C95.42,175.17 95.91,174.55 94.98,170.26 C94.54,168.19 93.64,160.65 93.00,153.50 C91.53,137.20 91.09,136.00 86.59,136.00 C81.06,136.00 79.00,139.50 79.01,148.88 C79.02,159.59 83.75,169.44 88.89,169.48 C89.80,169.49 90.39,170.19 90.24,171.09 C90.10,171.97 91.00,173.15 92.24,173.72 ZM 217.68 174.21 C217.89,174.59 219.06,174.54 220.28,174.08 C221.85,173.50 222.40,172.59 222.16,170.99 C221.88,169.07 222.20,168.80 224.30,169.21 C226.41,169.61 227.24,168.90 230.02,164.32 C232.60,160.06 233.37,157.53 233.76,152.06 C234.34,143.99 233.69,140.69 230.97,137.97 C228.77,135.77 224.04,135.36 222.20,137.20 C221.54,137.86 220.98,140.90 220.95,143.95 C220.92,147.00 220.09,154.90 219.10,161.50 C218.10,168.10 217.47,173.82 217.68,174.21 ZM 57.99 287.90 C59.25,303.81 59.29,304.00 61.63,304.00 C63.86,304.00 63.99,303.66 63.91,298.25 C63.75,288.60 61.56,270.67 60.50,270.34 C59.95,270.17 58.87,270.43 58.11,270.91 C56.93,271.66 56.91,274.23 57.99,287.90 ZM 192.51 132.32 C189.75,132.62 183.81,133.94 179.30,135.27 C171.16,137.65 168.21,137.51 169.25,134.79 C169.94,132.99 184.55,128.92 192.78,128.24 C200.14,127.63 207.00,130.00 207.00,133.15 C207.00,135.41 206.30,135.44 201.38,133.39 C198.74,132.28 195.93,131.94 192.51,132.32 ZM 143.38 136.20 C142.64,137.39 139.42,136.96 130.00,134.42 C120.11,131.75 115.48,131.51 112.00,133.50 C106.11,136.87 103.48,133.51 109.25,129.99 C113.71,127.27 120.44,127.44 132.54,130.59 C141.94,133.03 144.51,134.36 143.38,136.20 ZM 249.02 300.25 C249.00,303.54 249.29,304.00 251.38,304.00 C253.70,304.00 253.78,303.73 254.40,293.25 C254.76,287.34 255.30,279.91 255.62,276.75 C256.18,271.19 256.12,271.00 253.80,271.00 C251.75,271.00 251.37,271.53 251.16,274.75 C251.03,276.81 250.49,282.55 249.98,287.50 C249.46,292.45 249.03,298.19 249.02,300.25 ZM 219.75 189.92 C222.28,191.40 222.82,191.27 225.55,188.55 C227.30,186.79 228.00,185.01 227.98,182.30 C227.96,176.12 227.09,175.53 221.13,177.65 C218.30,178.65 215.74,180.25 215.44,181.19 C214.78,183.28 217.36,188.53 219.75,189.92 ZM 86.62 187.54 C90.05,192.78 97.00,189.42 97.00,182.51 C97.00,179.75 96.52,179.30 91.86,177.65 C87.65,176.15 86.58,176.06 85.88,177.16 C84.49,179.35 84.88,184.89 86.62,187.54 ZM 139.60 191.16 C140.05,191.90 142.07,191.97 145.88,191.39 C150.83,190.63 154.44,190.63 168.90,191.33 C170.78,191.43 172.48,191.01 172.68,190.42 C173.85,187.02 147.90,185.45 141.90,188.55 C140.24,189.41 139.23,190.56 139.60,191.16 ZM 146.13 198.87 C152.23,200.32 166.83,199.60 168.67,197.76 C170.98,195.45 158.40,193.69 149.92,195.14 C141.71,196.54 140.66,197.57 146.13,198.87 ZM 165.98 165.75 C166.00,168.23 164.78,168.68 163.27,166.75 C160.37,163.02 158.80,142.00 161.42,142.00 C162.44,142.00 163.03,143.90 163.52,148.75 C163.89,152.46 164.59,157.30 165.07,159.50 C165.56,161.70 165.96,164.51 165.98,165.75 ZM 189.93 150.81 C189.11,152.28 187.74,153.62 186.90,153.78 C183.02,154.53 180.19,145.75 183.44,143.05 C187.80,139.43 192.89,145.54 189.93,150.81 ZM 130.82 148.07 C130.63,150.00 129.64,151.84 128.32,152.71 C126.37,154.00 125.94,153.94 124.07,152.07 C120.28,148.28 121.84,142.00 126.58,142.00 C129.60,142.00 131.19,144.29 130.82,148.07 ZM 148.97 113.54 C146.44,116.59 141.00,114.37 141.00,110.30 C141.00,107.90 141.14,107.81 142.75,109.21 C143.71,110.05 145.78,111.04 147.34,111.41 C149.69,111.97 149.97,112.33 148.97,113.54 Z" fill="rgb(42,33,26)"/>
<path d="M 90.07 127.04 C89.38,124.59 88.47,118.51 88.05,113.54 C87.55,107.64 86.48,102.70 84.97,99.31 C82.90,94.67 82.78,93.68 83.86,90.07 C84.53,87.85 86.70,84.44 88.69,82.51 L 92.32 78.99 L 91.00 73.50 C89.26,66.23 90.66,61.44 95.94,56.68 C100.42,52.63 105.53,50.89 110.54,51.70 C113.76,52.22 114.00,52.08 114.00,49.59 C114.00,45.57 117.67,39.18 121.29,36.91 C123.71,35.39 125.55,35.02 128.75,35.43 C132.43,35.89 133.00,35.71 133.00,34.09 C133.00,30.21 139.97,29.88 143.67,33.58 L 146.25 36.15 L 149.37 33.20 C153.72,29.09 156.19,28.00 161.18,28.00 C167.03,28.01 171.68,31.01 174.02,36.31 C175.06,38.65 176.21,40.87 176.58,41.24 C176.95,41.61 178.97,41.03 181.08,39.96 C189.60,35.61 196.41,38.92 202.08,50.16 C205.03,56.00 205.03,56.00 209.59,56.00 C213.30,56.00 214.70,56.55 217.08,58.92 C219.49,61.34 220.00,62.68 220.00,66.61 C220.00,70.05 219.43,71.98 217.92,73.58 L 215.85 75.79 L 219.47 76.99 C227.62,79.68 230.97,91.50 226.18,100.71 C224.56,103.84 224.00,106.68 224.00,111.79 C224.00,119.13 222.20,130.00 220.99,130.00 C220.59,130.00 219.95,126.51 219.58,122.25 C219.21,117.99 218.35,112.03 217.68,109.00 L 216.46 103.50 L 211.59 102.94 C205.14,102.19 201.00,97.89 201.00,91.93 C201.00,87.37 198.87,82.55 196.45,81.62 C193.55,80.50 192.77,82.12 195.04,84.54 C201.86,91.80 195.62,104.94 185.33,104.99 L 182.17 105.00 L 184.33 101.02 C187.09,95.96 185.95,93.73 180.20,92.94 C177.14,92.52 174.85,91.20 171.10,87.69 C165.69,82.63 163.25,81.96 160.65,84.83 C158.49,87.22 158.55,87.67 161.50,91.18 C164.92,95.24 164.77,99.39 161.08,103.08 C158.68,105.48 157.31,106.00 153.47,106.00 L 148.79 106.00 L 151.89 103.10 C155.77,99.47 155.82,96.67 152.08,92.92 C149.68,90.53 148.31,90.00 144.50,90.00 C138.72,90.00 134.69,93.51 133.57,99.52 C133.16,101.71 132.12,104.29 131.26,105.25 C129.17,107.58 124.86,107.47 121.73,105.00 C118.30,102.31 117.27,102.48 116.53,105.86 C114.98,112.90 106.98,115.47 101.45,110.71 L 98.78 108.41 L 101.39 105.31 C104.52,101.59 104.53,101.53 102.00,99.00 C98.81,95.81 99.37,91.35 103.25,88.99 C105.04,87.90 107.40,87.00 108.50,86.99 C112.68,86.95 113.31,85.58 111.08,81.41 C107.63,74.98 108.61,70.28 113.98,67.51 C115.59,66.68 118.09,66.00 119.53,66.00 C123.13,66.00 122.20,63.60 118.42,63.16 C109.76,62.15 103.36,73.08 107.36,82.04 C107.87,83.16 107.15,83.90 104.72,84.78 C97.24,87.49 94.46,92.98 97.60,98.82 C99.01,101.42 99.17,102.44 98.25,102.75 C96.59,103.30 93.98,112.53 92.52,123.00 L 91.33 131.50 ZM 146.00 237.55 C139.36,235.68 133.78,233.15 132.04,231.21 C126.58,225.15 125.01,222.70 125.88,221.64 C126.40,221.01 127.15,216.23 127.55,211.00 C127.96,205.77 128.88,199.93 129.59,198.00 L 130.90 194.50 L 130.37 198.50 C128.57,212.09 128.65,213.43 131.51,216.83 C135.66,221.76 139.77,223.46 146.71,223.11 C148.95,223.00 154.00,218.40 154.00,216.46 C154.00,215.88 154.52,214.88 155.16,214.24 C156.05,213.35 156.77,213.58 158.16,215.19 C159.17,216.35 160.00,217.89 160.00,218.60 C160.00,220.75 164.22,223.00 168.27,223.00 C173.05,223.00 176.96,221.02 180.50,216.82 C183.27,213.53 183.45,210.98 181.68,200.68 C181.33,198.66 176.35,193.00 174.92,193.00 C174.41,193.00 174.00,192.48 174.00,191.85 C174.00,191.12 174.65,191.26 175.75,192.23 C176.71,193.07 178.46,194.05 179.63,194.41 C182.23,195.20 183.67,200.23 184.55,211.59 C184.90,216.03 185.56,220.28 186.02,221.03 C188.45,224.96 175.28,237.20 170.56,235.39 C169.70,235.06 169.00,235.24 169.00,235.80 C169.00,238.83 154.49,239.94 146.00,237.55 ZM 238.61 300.25 C238.84,298.19 239.70,289.79 240.52,281.58 C241.34,273.37 242.17,266.49 242.38,266.29 C242.58,266.09 243.97,266.49 245.47,267.17 C247.97,268.31 248.16,268.77 247.63,272.46 C247.31,274.68 246.49,282.69 245.81,290.25 L 244.95 299.84 C244.99,298.53 245.00,296.82 245.00,294.59 C245.00,286.87 244.73,285.22 243.53,285.39 C241.19,285.74 240.73,286.71 241.98,288.67 C243.07,290.38 243.11,290.36 242.52,288.50 C242.00,286.88 242.13,286.74 243.15,287.76 C244.13,288.73 244.17,289.72 243.34,291.92 C242.73,293.52 242.35,295.87 242.48,297.16 C242.62,298.45 242.53,298.71 242.29,297.75 C242.06,296.79 241.39,296.00 240.81,296.00 C240.22,296.00 240.03,296.97 240.37,298.25 C240.70,299.49 240.98,301.29 240.99,302.25 C240.99,303.33 241.77,304.00 243.00,304.00 C243.94,304.00 244.44,303.83 244.70,302.55 L 244.57 304.00 L 241.38 304.00 C238.29,304.00 238.20,303.89 238.61,300.25 ZM 139.60 191.16 C139.23,190.56 140.24,189.41 141.90,188.55 C147.90,185.45 173.85,187.02 172.68,190.42 C172.48,191.01 170.78,191.43 168.90,191.33 C154.44,190.63 150.83,190.63 145.88,191.39 C142.07,191.97 140.05,191.90 139.60,191.16 ZM 148.97 113.54 C149.97,112.33 149.69,111.97 147.34,111.41 C146.79,111.28 146.18,111.07 145.58,110.82 C145.94,110.92 146.29,110.97 146.58,110.97 C148.21,110.94 148.09,110.63 145.75,108.88 C142.68,106.59 142.11,104.00 144.69,104.00 C146.02,104.00 147.73,102.86 149.03,101.39 C147.80,102.83 146.26,104.00 145.19,104.00 C143.24,104.00 143.84,106.84 146.03,108.02 C147.14,108.61 150.26,109.36 152.95,109.68 C155.72,110.01 157.32,109.96 159.04,109.28 C157.97,109.74 156.93,110.00 156.03,110.00 C154.80,110.00 152.45,111.12 150.82,112.50 C149.18,113.88 147.18,115.00 146.36,115.00 C146.08,115.00 145.81,114.98 145.55,114.95 C143.45,114.80 141.36,113.21 141.04,110.91 C141.34,113.00 143.17,114.64 145.55,114.95 C146.81,115.04 148.07,114.62 148.97,113.54 ZM 150.00 95.06 C149.55,95.10 149.04,95.74 148.71,97.00 C148.04,99.57 146.32,99.57 145.50,97.00 C145.10,95.73 143.99,95.00 142.46,95.00 C140.69,95.00 139.17,96.41 137.97,99.12 C139.46,95.45 141.40,94.00 144.47,94.00 C147.28,94.00 149.03,94.31 150.00,95.06 ZM 140.38 185.22 C140.93,184.99 141.48,184.76 142.05,184.54 L 150.02 181.37 L 147.51 179.01 C146.07,177.65 145.18,176.21 145.03,175.22 C145.38,176.49 147.08,178.50 149.40,180.00 L 153.27 182.50 L 148.33 183.12 C145.87,183.42 143.11,184.19 140.38,185.22 ZM 136.57 103.46 C135.84,106.35 134.05,108.52 131.72,109.73 C133.85,108.52 135.56,106.38 136.57,103.46 ZM 167.04 101.29 C166.91,101.65 166.77,102.01 166.61,102.38 C166.16,103.48 165.33,104.61 164.30,105.65 C165.45,104.38 166.40,102.88 167.04,101.29 ZM 167.57 94.68 C167.12,93.40 166.37,91.88 165.53,90.64 C166.52,92.10 167.20,93.40 167.57,94.68 ZM 145.92 174.00 C145.94,174.00 145.95,174.00 145.97,174.00 C146.50,174.00 148.95,175.42 151.41,177.15 C148.98,175.44 146.54,174.04 145.92,174.00 ZM 141.47 108.30 C141.06,108.22 141.00,108.80 141.00,110.22 C141.00,108.76 141.05,108.18 141.47,108.30 ZM 150.76 98.61 C150.91,98.18 150.99,97.76 151.00,97.37 C151.00,97.39 151.00,97.41 151.00,97.43 C151.00,97.79 150.91,98.19 150.76,98.61 ZM 141.00 110.31 C141.00,110.51 141.01,110.71 141.04,110.90 C141.01,110.71 141.00,110.51 141.00,110.31 Z" fill="rgb(196,164,127)"/>
<path d="M 15.84 301.22 C18.97,296.83 26.98,289.71 33.51,285.53 C39.93,281.42 50.78,276.00 52.61,276.00 C53.32,276.00 53.98,279.93 54.41,286.75 C54.78,292.66 55.34,298.96 55.65,300.75 L 56.22 304.00 L 35.04 304.00 L 13.86 304.00 L 15.84 301.22 ZM 85.61 301.25 C84.31,294.73 81.98,265.62 82.71,264.91 C83.14,264.49 91.15,261.41 100.50,258.08 C109.85,254.75 118.06,251.26 118.75,250.32 C119.58,249.19 120.00,244.68 120.00,236.81 C120.00,230.31 120.24,225.00 120.54,225.00 C120.84,225.00 123.43,227.39 126.29,230.32 C133.16,237.33 139.18,240.72 148.14,242.62 C162.21,245.59 175.68,241.48 186.13,231.03 C189.44,227.72 192.35,225.00 192.58,225.00 C192.81,225.00 193.00,230.40 193.00,237.01 C193.00,247.59 193.23,249.21 194.91,250.65 C195.96,251.55 203.27,254.64 211.16,257.52 C233.58,265.69 231.35,264.29 230.66,269.77 C230.33,272.37 229.31,281.14 228.38,289.25 L 226.68 304.00 L 156.42 304.00 L 86.16 304.00 L 85.61 301.25 ZM 240.99 302.25 C240.98,301.29 240.70,299.49 240.37,298.25 C240.03,296.97 240.22,296.00 240.81,296.00 C241.39,296.00 242.06,296.79 242.29,297.75 C242.53,298.71 242.62,298.45 242.48,297.16 C242.35,295.87 242.73,293.52 243.34,291.92 C244.17,289.72 244.13,288.73 243.15,287.76 C242.13,286.74 242.00,286.88 242.52,288.50 C243.11,290.36 243.07,290.38 241.98,288.67 C240.73,286.71 241.19,285.74 243.53,285.39 C244.73,285.22 245.00,286.87 245.00,294.59 C245.00,303.33 244.86,304.00 243.00,304.00 C241.77,304.00 240.99,303.33 240.99,302.25 ZM 257.33 300.25 C257.65,298.19 258.22,291.89 258.60,286.25 C259.10,278.76 259.64,276.00 260.61,276.00 C261.34,276.00 266.54,278.36 272.17,281.25 C282.20,286.40 292.39,294.53 297.11,301.15 L 299.14 304.00 L 277.94 304.00 L 256.74 304.00 L 257.33 300.25 ZM 66.62 285.18 C66.32,283.16 65.80,278.72 65.45,275.33 C64.87,269.66 65.00,269.07 67.04,267.98 C68.76,267.06 69.42,267.07 70.01,268.01 C70.87,269.40 72.40,286.94 71.72,287.62 C71.47,287.86 70.34,288.24 69.21,288.46 C67.50,288.79 67.06,288.23 66.62,285.18 ZM 140.50 218.83 C135.37,216.00 134.00,213.80 134.00,208.44 C134.00,204.86 134.58,202.51 135.84,200.95 L 137.69 198.67 L 142.09 200.73 C144.52,201.87 148.84,203.08 151.70,203.42 C157.96,204.18 169.85,202.44 172.06,200.44 C174.83,197.94 176.83,198.73 177.95,202.75 C178.52,204.81 178.99,207.96 178.99,209.73 C179.01,216.38 169.61,222.47 165.58,218.43 C163.89,216.75 163.87,214.59 165.48,210.75 C166.15,209.15 165.37,209.00 156.61,209.00 C148.91,209.00 147.00,209.29 147.00,210.44 C147.00,211.23 147.45,212.16 148.00,212.50 C149.51,213.43 149.20,216.66 147.43,218.43 C145.60,220.26 143.32,220.39 140.50,218.83 ZM 116.79 213.36 C114.31,210.14 110.90,205.02 109.20,202.00 C99.39,184.52 93.06,147.29 95.93,124.00 C96.57,118.78 97.46,114.14 97.90,113.70 C98.34,113.26 100.37,113.87 102.40,115.07 C108.69,118.79 117.11,116.16 119.22,109.83 C119.58,108.77 120.18,108.76 122.38,109.76 C128.56,112.58 135.09,109.63 136.60,103.34 C137.91,97.88 139.93,95.00 142.46,95.00 C143.99,95.00 145.10,95.73 145.50,97.00 C146.32,99.57 148.04,99.57 148.71,97.00 C149.43,94.25 151.00,94.48 151.00,97.33 C151.00,99.98 147.20,104.00 144.69,104.00 C142.11,104.00 142.68,106.59 145.75,108.88 C148.09,110.63 148.21,110.94 146.58,110.97 C145.52,110.99 143.83,110.26 142.83,109.35 C141.10,107.78 141.00,107.84 141.00,110.31 C141.00,112.93 143.37,115.00 146.36,115.00 C147.18,115.00 149.18,113.88 150.82,112.50 C152.45,111.12 154.80,110.00 156.03,110.00 C159.55,110.00 165.10,106.01 166.61,102.38 C168.60,97.62 168.34,94.78 165.53,90.64 C161.83,85.18 165.30,85.78 170.55,91.50 C174.03,95.29 175.27,96.00 178.41,96.00 C181.70,96.00 182.10,96.26 181.82,98.23 C181.64,99.46 180.05,101.38 178.27,102.48 C173.95,105.18 174.54,107.10 180.20,108.86 C184.44,110.18 185.32,110.15 189.48,108.56 C192.01,107.59 195.41,105.38 197.03,103.65 C199.56,100.94 200.22,100.68 201.74,101.76 C207.09,105.61 209.73,106.99 211.68,107.00 C214.55,107.00 215.13,109.19 216.99,127.30 C218.48,141.81 215.08,171.68 210.32,185.97 C206.17,198.40 193.39,219.98 191.04,218.53 C190.55,218.22 189.87,214.95 189.52,211.24 C188.60,201.33 187.07,195.36 184.71,192.36 C182.16,189.12 169.31,183.00 165.07,183.00 C161.25,183.00 161.24,182.51 165.00,179.35 C168.13,176.71 168.97,174.00 166.65,174.00 C165.92,174.00 164.53,174.86 163.58,175.91 C162.63,176.96 160.51,178.37 158.86,179.06 C156.13,180.19 155.50,180.03 151.41,177.15 C148.95,175.42 146.50,174.00 145.97,174.00 C144.17,174.00 144.98,176.63 147.51,179.01 L 150.02 181.37 L 142.05 184.54 C133.87,187.79 127.75,191.74 126.09,194.83 C125.58,195.79 124.66,201.00 124.06,206.41 C122.53,220.14 122.22,220.43 116.79,213.36 ZM 165.98 165.75 C165.96,164.51 165.56,161.70 165.07,159.50 C164.59,157.30 163.89,152.46 163.52,148.75 C163.03,143.90 162.44,142.00 161.42,142.00 C158.80,142.00 160.37,163.02 163.27,166.75 C164.78,168.68 166.00,168.23 165.98,165.75 ZM 130.82 148.07 C131.19,144.29 129.60,142.00 126.58,142.00 C121.84,142.00 120.28,148.28 124.07,152.07 C125.94,153.94 126.37,154.00 128.32,152.71 C129.64,151.84 130.63,150.00 130.82,148.07 ZM 189.93 150.81 C192.89,145.54 187.80,139.43 183.44,143.05 C180.19,145.75 183.02,154.53 186.90,153.78 C187.74,153.62 189.11,152.28 189.93,150.81 ZM 192.51 132.32 C195.93,131.94 198.74,132.28 201.38,133.39 C206.30,135.44 207.00,135.41 207.00,133.15 C207.00,130.00 200.14,127.63 192.78,128.24 C184.55,128.92 169.94,132.99 169.25,134.79 C168.21,137.51 171.16,137.65 179.30,135.27 C183.81,133.94 189.75,132.62 192.51,132.32 ZM 143.38 136.20 C144.51,134.36 141.94,133.03 132.54,130.59 C120.44,127.44 113.71,127.27 109.25,129.99 C103.48,133.51 106.11,136.87 112.00,133.50 C115.48,131.51 120.11,131.75 130.00,134.42 C139.42,136.96 142.64,137.39 143.38,136.20 ZM 146.13 198.87 C140.66,197.57 141.71,196.54 149.92,195.14 C158.40,193.69 170.98,195.45 168.67,197.76 C166.83,199.60 152.23,200.32 146.13,198.87 ZM 92.24 173.72 C91.00,173.15 90.10,171.97 90.24,171.09 C90.39,170.19 89.80,169.49 88.89,169.48 C83.75,169.44 79.02,159.59 79.01,148.88 C79.00,139.50 81.06,136.00 86.59,136.00 C91.09,136.00 91.53,137.20 93.00,153.50 C93.64,160.65 94.54,168.19 94.98,170.26 C95.91,174.55 95.42,175.17 92.24,173.72 ZM 217.68 174.21 C217.47,173.82 218.10,168.10 219.10,161.50 C220.09,154.90 220.92,147.00 220.95,143.95 C220.98,140.90 221.54,137.86 222.20,137.20 C224.04,135.36 228.77,135.77 230.97,137.97 C233.69,140.69 234.34,143.99 233.76,152.06 C233.37,157.53 232.60,160.06 230.02,164.32 C227.24,168.90 226.41,169.61 224.30,169.21 C222.20,168.80 221.88,169.07 222.16,170.99 C222.40,172.59 221.85,173.50 220.28,174.08 C219.06,174.54 217.89,174.59 217.68,174.21 Z" fill="rgb(245,208,187)"/>
</g>
</svg>